<mxfile host="app.diagrams.net" modified="2024-07-19T13:13:46.131Z" agent="Mozilla/5.0 (Windows NT 10.0; Win64; x64) AppleWebKit/537.36 (KHTML, like Gecko) Chrome/125.0.0.0 Safari/537.36 OPR/111.0.0.0" etag="ZY9CgXEwAwOLVZDo2G8z" version="24.6.0" type="github">
  <diagram name="Page-1" id="bfe91b75-5d2c-26a0-9c1d-138518896778">
    <mxGraphModel dx="2033" dy="2815" grid="1" gridSize="10" guides="1" tooltips="1" connect="1" arrows="1" fold="1" page="1" pageScale="1" pageWidth="1100" pageHeight="850" background="none" math="0" shadow="0">
      <root>
        <mxCell id="0" />
        <mxCell id="1" parent="0" />
        <mxCell id="n1Ga5cI-aDsPV8AeEbfY-209" value="" style="rounded=0;whiteSpace=wrap;html=1;sketch=1;hachureGap=4;jiggle=2;curveFitting=1;fontFamily=Architects Daughter;fontSource=https%3A%2F%2Ffonts.googleapis.com%2Fcss%3Ffamily%3DArchitects%2BDaughter;" vertex="1" parent="1">
          <mxGeometry x="2040" y="-1000" width="570" height="520" as="geometry" />
        </mxCell>
        <mxCell id="n1Ga5cI-aDsPV8AeEbfY-208" value="" style="rounded=0;whiteSpace=wrap;html=1;sketch=1;hachureGap=4;jiggle=2;curveFitting=1;fontFamily=Architects Daughter;fontSource=https%3A%2F%2Ffonts.googleapis.com%2Fcss%3Ffamily%3DArchitects%2BDaughter;movable=0;resizable=0;rotatable=0;deletable=0;editable=0;locked=1;connectable=0;" vertex="1" parent="1">
          <mxGeometry x="1440" y="-1280" width="480" height="810" as="geometry" />
        </mxCell>
        <mxCell id="n1Ga5cI-aDsPV8AeEbfY-98" value="" style="rounded=0;whiteSpace=wrap;html=1;sketch=1;hachureGap=4;jiggle=2;curveFitting=1;fontFamily=Architects Daughter;fontSource=https%3A%2F%2Ffonts.googleapis.com%2Fcss%3Ffamily%3DArchitects%2BDaughter;movable=1;resizable=1;rotatable=1;deletable=1;editable=1;locked=0;connectable=1;" vertex="1" parent="1">
          <mxGeometry x="1000" y="680" width="840" height="630" as="geometry" />
        </mxCell>
        <mxCell id="n1Ga5cI-aDsPV8AeEbfY-97" value="" style="rounded=0;whiteSpace=wrap;html=1;sketch=1;hachureGap=4;jiggle=2;curveFitting=1;fontFamily=Architects Daughter;fontSource=https%3A%2F%2Ffonts.googleapis.com%2Fcss%3Ffamily%3DArchitects%2BDaughter;movable=1;resizable=1;rotatable=1;deletable=1;editable=1;locked=0;connectable=1;" vertex="1" parent="1">
          <mxGeometry x="1795" y="-160" width="460" height="430" as="geometry" />
        </mxCell>
        <mxCell id="n1Ga5cI-aDsPV8AeEbfY-94" value="" style="rounded=0;whiteSpace=wrap;html=1;sketch=1;hachureGap=4;jiggle=2;curveFitting=1;fontFamily=Architects Daughter;fontSource=https%3A%2F%2Ffonts.googleapis.com%2Fcss%3Ffamily%3DArchitects%2BDaughter;movable=0;resizable=0;rotatable=0;deletable=0;editable=0;locked=1;connectable=0;" vertex="1" parent="1">
          <mxGeometry x="1190" y="-160" width="470" height="430" as="geometry" />
        </mxCell>
        <mxCell id="n1Ga5cI-aDsPV8AeEbfY-92" value="" style="rounded=0;whiteSpace=wrap;html=1;sketch=1;hachureGap=4;jiggle=2;curveFitting=1;fontFamily=Architects Daughter;fontSource=https%3A%2F%2Ffonts.googleapis.com%2Fcss%3Ffamily%3DArchitects%2BDaughter;movable=0;resizable=0;rotatable=0;deletable=0;editable=0;locked=1;connectable=0;" vertex="1" parent="1">
          <mxGeometry x="720" y="-165" width="380" height="435" as="geometry" />
        </mxCell>
        <mxCell id="n1Ga5cI-aDsPV8AeEbfY-73" style="edgeStyle=orthogonalEdgeStyle;rounded=0;sketch=1;hachureGap=4;jiggle=2;curveFitting=1;orthogonalLoop=1;jettySize=auto;html=1;fontFamily=Architects Daughter;fontSource=https%3A%2F%2Ffonts.googleapis.com%2Fcss%3Ffamily%3DArchitects%2BDaughter;" edge="1" parent="1" source="n1Ga5cI-aDsPV8AeEbfY-2" target="n1Ga5cI-aDsPV8AeEbfY-3">
          <mxGeometry relative="1" as="geometry" />
        </mxCell>
        <mxCell id="n1Ga5cI-aDsPV8AeEbfY-2" value="&lt;font style=&quot;font-size: 25px;&quot;&gt;ASP&lt;/font&gt;" style="fontColor=#0066CC;verticalAlign=top;verticalLabelPosition=bottom;labelPosition=center;align=center;html=1;outlineConnect=0;fillColor=#CCCCCC;strokeColor=#6881B3;gradientColor=none;gradientDirection=north;strokeWidth=2;shape=mxgraph.networks.mail_server;sketch=1;hachureGap=4;jiggle=2;curveFitting=1;fontFamily=Architects Daughter;fontSource=https%3A%2F%2Ffonts.googleapis.com%2Fcss%3Ffamily%3DArchitects%2BDaughter;" vertex="1" parent="1">
          <mxGeometry x="460" y="90.5" width="105" height="105" as="geometry" />
        </mxCell>
        <mxCell id="n1Ga5cI-aDsPV8AeEbfY-28" style="edgeStyle=orthogonalEdgeStyle;rounded=0;sketch=1;hachureGap=4;jiggle=2;curveFitting=1;orthogonalLoop=1;jettySize=auto;html=1;fontFamily=Architects Daughter;fontSource=https%3A%2F%2Ffonts.googleapis.com%2Fcss%3Ffamily%3DArchitects%2BDaughter;" edge="1" parent="1" source="n1Ga5cI-aDsPV8AeEbfY-3" target="n1Ga5cI-aDsPV8AeEbfY-6">
          <mxGeometry relative="1" as="geometry">
            <Array as="points">
              <mxPoint x="880" y="143" />
              <mxPoint x="880" y="-65" />
            </Array>
          </mxGeometry>
        </mxCell>
        <mxCell id="n1Ga5cI-aDsPV8AeEbfY-29" style="edgeStyle=orthogonalEdgeStyle;rounded=0;sketch=1;hachureGap=4;jiggle=2;curveFitting=1;orthogonalLoop=1;jettySize=auto;html=1;fontFamily=Architects Daughter;fontSource=https%3A%2F%2Ffonts.googleapis.com%2Fcss%3Ffamily%3DArchitects%2BDaughter;" edge="1" parent="1" source="n1Ga5cI-aDsPV8AeEbfY-3" target="n1Ga5cI-aDsPV8AeEbfY-5">
          <mxGeometry relative="1" as="geometry">
            <Array as="points">
              <mxPoint x="900" y="143" />
              <mxPoint x="900" y="45" />
            </Array>
          </mxGeometry>
        </mxCell>
        <mxCell id="n1Ga5cI-aDsPV8AeEbfY-30" style="edgeStyle=orthogonalEdgeStyle;rounded=0;sketch=1;hachureGap=4;jiggle=2;curveFitting=1;orthogonalLoop=1;jettySize=auto;html=1;fontFamily=Architects Daughter;fontSource=https%3A%2F%2Ffonts.googleapis.com%2Fcss%3Ffamily%3DArchitects%2BDaughter;" edge="1" parent="1" source="n1Ga5cI-aDsPV8AeEbfY-3" target="n1Ga5cI-aDsPV8AeEbfY-4">
          <mxGeometry relative="1" as="geometry" />
        </mxCell>
        <mxCell id="n1Ga5cI-aDsPV8AeEbfY-105" style="edgeStyle=orthogonalEdgeStyle;rounded=0;sketch=1;hachureGap=4;jiggle=2;curveFitting=1;orthogonalLoop=1;jettySize=auto;html=1;entryX=0;entryY=0.5;entryDx=0;entryDy=0;fontFamily=Architects Daughter;fontSource=https%3A%2F%2Ffonts.googleapis.com%2Fcss%3Ffamily%3DArchitects%2BDaughter;" edge="1" parent="1" source="n1Ga5cI-aDsPV8AeEbfY-3" target="n1Ga5cI-aDsPV8AeEbfY-104">
          <mxGeometry relative="1" as="geometry" />
        </mxCell>
        <mxCell id="n1Ga5cI-aDsPV8AeEbfY-3" value="" style="fontColor=#0066CC;verticalAlign=top;verticalLabelPosition=bottom;labelPosition=center;align=center;html=1;outlineConnect=0;fillColor=#CCCCCC;strokeColor=#6881B3;gradientColor=none;gradientDirection=north;strokeWidth=2;shape=mxgraph.networks.hub;sketch=1;hachureGap=4;jiggle=2;curveFitting=1;fontFamily=Architects Daughter;fontSource=https%3A%2F%2Ffonts.googleapis.com%2Fcss%3Ffamily%3DArchitects%2BDaughter;" vertex="1" parent="1">
          <mxGeometry x="760" y="128" width="100" height="30" as="geometry" />
        </mxCell>
        <mxCell id="n1Ga5cI-aDsPV8AeEbfY-4" value="" style="rounded=1;whiteSpace=wrap;html=1;sketch=1;hachureGap=4;jiggle=2;curveFitting=1;fontFamily=Architects Daughter;fontSource=https%3A%2F%2Ffonts.googleapis.com%2Fcss%3Ffamily%3DArchitects%2BDaughter;" vertex="1" parent="1">
          <mxGeometry x="945" y="128" width="70" height="37" as="geometry" />
        </mxCell>
        <mxCell id="n1Ga5cI-aDsPV8AeEbfY-5" value="" style="fontColor=#0066CC;verticalAlign=top;verticalLabelPosition=bottom;labelPosition=center;align=center;html=1;outlineConnect=0;fillColor=#CCCCCC;strokeColor=#6881B3;gradientColor=none;gradientDirection=north;strokeWidth=2;shape=mxgraph.networks.pc;sketch=1;hachureGap=4;jiggle=2;curveFitting=1;fontFamily=Architects Daughter;fontSource=https%3A%2F%2Ffonts.googleapis.com%2Fcss%3Ffamily%3DArchitects%2BDaughter;" vertex="1" parent="1">
          <mxGeometry x="930" y="10" width="100" height="70" as="geometry" />
        </mxCell>
        <mxCell id="n1Ga5cI-aDsPV8AeEbfY-6" value="" style="fontColor=#0066CC;verticalAlign=top;verticalLabelPosition=bottom;labelPosition=center;align=center;html=1;outlineConnect=0;fillColor=#CCCCCC;strokeColor=#6881B3;gradientColor=none;gradientDirection=north;strokeWidth=2;shape=mxgraph.networks.pc;sketch=1;hachureGap=4;jiggle=2;curveFitting=1;fontFamily=Architects Daughter;fontSource=https%3A%2F%2Ffonts.googleapis.com%2Fcss%3Ffamily%3DArchitects%2BDaughter;" vertex="1" parent="1">
          <mxGeometry x="930" y="-100" width="100" height="70" as="geometry" />
        </mxCell>
        <mxCell id="n1Ga5cI-aDsPV8AeEbfY-114" style="edgeStyle=orthogonalEdgeStyle;rounded=0;sketch=1;hachureGap=4;jiggle=2;curveFitting=1;orthogonalLoop=1;jettySize=auto;html=1;fontFamily=Architects Daughter;fontSource=https%3A%2F%2Ffonts.googleapis.com%2Fcss%3Ffamily%3DArchitects%2BDaughter;" edge="1" parent="1" source="n1Ga5cI-aDsPV8AeEbfY-7" target="n1Ga5cI-aDsPV8AeEbfY-109">
          <mxGeometry relative="1" as="geometry">
            <Array as="points">
              <mxPoint x="1355" y="-310" />
              <mxPoint x="1355" y="-310" />
            </Array>
          </mxGeometry>
        </mxCell>
        <mxCell id="n1Ga5cI-aDsPV8AeEbfY-7" value="" style="html=1;outlineConnect=0;fillColor=#CCCCCC;strokeColor=#6881B3;gradientColor=none;gradientDirection=north;strokeWidth=2;shape=mxgraph.networks.bus;gradientColor=none;gradientDirection=north;fontColor=#ffffff;perimeter=backbonePerimeter;backboneSize=20;sketch=1;hachureGap=4;jiggle=2;curveFitting=1;fontFamily=Architects Daughter;fontSource=https%3A%2F%2Ffonts.googleapis.com%2Fcss%3Ffamily%3DArchitects%2BDaughter;" vertex="1" parent="1">
          <mxGeometry x="800" y="-350" width="590" height="20" as="geometry" />
        </mxCell>
        <mxCell id="n1Ga5cI-aDsPV8AeEbfY-122" style="edgeStyle=orthogonalEdgeStyle;rounded=0;sketch=1;hachureGap=4;jiggle=2;curveFitting=1;orthogonalLoop=1;jettySize=auto;html=1;fontFamily=Architects Daughter;fontSource=https%3A%2F%2Ffonts.googleapis.com%2Fcss%3Ffamily%3DArchitects%2BDaughter;" edge="1" parent="1" source="n1Ga5cI-aDsPV8AeEbfY-10" target="n1Ga5cI-aDsPV8AeEbfY-113">
          <mxGeometry relative="1" as="geometry" />
        </mxCell>
        <mxCell id="n1Ga5cI-aDsPV8AeEbfY-10" value="" style="html=1;outlineConnect=0;fillColor=#CCCCCC;strokeColor=#6881B3;gradientColor=none;gradientDirection=north;strokeWidth=2;shape=mxgraph.networks.bus;gradientColor=none;gradientDirection=north;fontColor=#ffffff;perimeter=backbonePerimeter;backboneSize=20;sketch=1;hachureGap=4;jiggle=2;curveFitting=1;fontFamily=Architects Daughter;fontSource=https%3A%2F%2Ffonts.googleapis.com%2Fcss%3Ffamily%3DArchitects%2BDaughter;rotation=90;" vertex="1" parent="1">
          <mxGeometry x="1351.25" y="451.25" width="127.5" height="20" as="geometry" />
        </mxCell>
        <mxCell id="n1Ga5cI-aDsPV8AeEbfY-12" style="edgeStyle=orthogonalEdgeStyle;rounded=0;sketch=1;hachureGap=4;jiggle=2;curveFitting=1;orthogonalLoop=1;jettySize=auto;html=1;fontFamily=Architects Daughter;fontSource=https%3A%2F%2Ffonts.googleapis.com%2Fcss%3Ffamily%3DArchitects%2BDaughter;" edge="1" parent="1" source="n1Ga5cI-aDsPV8AeEbfY-11" target="n1Ga5cI-aDsPV8AeEbfY-112">
          <mxGeometry relative="1" as="geometry">
            <mxPoint x="1410" y="240" as="targetPoint" />
          </mxGeometry>
        </mxCell>
        <mxCell id="n1Ga5cI-aDsPV8AeEbfY-120" style="edgeStyle=orthogonalEdgeStyle;rounded=0;sketch=1;hachureGap=4;jiggle=2;curveFitting=1;orthogonalLoop=1;jettySize=auto;html=1;fontFamily=Architects Daughter;fontSource=https%3A%2F%2Ffonts.googleapis.com%2Fcss%3Ffamily%3DArchitects%2BDaughter;" edge="1" parent="1" source="n1Ga5cI-aDsPV8AeEbfY-11" target="n1Ga5cI-aDsPV8AeEbfY-110">
          <mxGeometry relative="1" as="geometry">
            <Array as="points">
              <mxPoint x="1450" y="-140" />
              <mxPoint x="1485" y="-140" />
            </Array>
          </mxGeometry>
        </mxCell>
        <mxCell id="n1Ga5cI-aDsPV8AeEbfY-11" value="" style="fontColor=#0066CC;verticalAlign=top;verticalLabelPosition=bottom;labelPosition=center;align=center;html=1;outlineConnect=0;fillColor=#CCCCCC;strokeColor=#6881B3;gradientColor=none;gradientDirection=north;strokeWidth=2;shape=mxgraph.networks.hub;sketch=1;hachureGap=4;jiggle=2;curveFitting=1;fontFamily=Architects Daughter;fontSource=https%3A%2F%2Ffonts.googleapis.com%2Fcss%3Ffamily%3DArchitects%2BDaughter;" vertex="1" parent="1">
          <mxGeometry x="1365" y="-90" width="100" height="30" as="geometry" />
        </mxCell>
        <mxCell id="n1Ga5cI-aDsPV8AeEbfY-22" style="edgeStyle=orthogonalEdgeStyle;rounded=0;sketch=1;hachureGap=4;jiggle=2;curveFitting=1;orthogonalLoop=1;jettySize=auto;html=1;fontFamily=Architects Daughter;fontSource=https%3A%2F%2Ffonts.googleapis.com%2Fcss%3Ffamily%3DArchitects%2BDaughter;" edge="1" parent="1" source="n1Ga5cI-aDsPV8AeEbfY-14" target="n1Ga5cI-aDsPV8AeEbfY-11">
          <mxGeometry relative="1" as="geometry" />
        </mxCell>
        <mxCell id="n1Ga5cI-aDsPV8AeEbfY-14" value="" style="ellipse;whiteSpace=wrap;html=1;aspect=fixed;sketch=1;hachureGap=4;jiggle=2;curveFitting=1;fontFamily=Architects Daughter;fontSource=https%3A%2F%2Ffonts.googleapis.com%2Fcss%3Ffamily%3DArchitects%2BDaughter;" vertex="1" parent="1">
          <mxGeometry x="1210" y="-115" width="80" height="80" as="geometry" />
        </mxCell>
        <mxCell id="n1Ga5cI-aDsPV8AeEbfY-21" style="edgeStyle=orthogonalEdgeStyle;rounded=0;sketch=1;hachureGap=4;jiggle=2;curveFitting=1;orthogonalLoop=1;jettySize=auto;html=1;fontFamily=Architects Daughter;fontSource=https%3A%2F%2Ffonts.googleapis.com%2Fcss%3Ffamily%3DArchitects%2BDaughter;" edge="1" parent="1" source="n1Ga5cI-aDsPV8AeEbfY-15" target="n1Ga5cI-aDsPV8AeEbfY-11">
          <mxGeometry relative="1" as="geometry" />
        </mxCell>
        <mxCell id="n1Ga5cI-aDsPV8AeEbfY-15" value="" style="ellipse;whiteSpace=wrap;html=1;aspect=fixed;sketch=1;hachureGap=4;jiggle=2;curveFitting=1;fontFamily=Architects Daughter;fontSource=https%3A%2F%2Ffonts.googleapis.com%2Fcss%3Ffamily%3DArchitects%2BDaughter;" vertex="1" parent="1">
          <mxGeometry x="1560" y="-115" width="80" height="80" as="geometry" />
        </mxCell>
        <mxCell id="n1Ga5cI-aDsPV8AeEbfY-20" style="edgeStyle=orthogonalEdgeStyle;rounded=0;sketch=1;hachureGap=4;jiggle=2;curveFitting=1;orthogonalLoop=1;jettySize=auto;html=1;fontFamily=Architects Daughter;fontSource=https%3A%2F%2Ffonts.googleapis.com%2Fcss%3Ffamily%3DArchitects%2BDaughter;" edge="1" parent="1" source="n1Ga5cI-aDsPV8AeEbfY-16" target="n1Ga5cI-aDsPV8AeEbfY-11">
          <mxGeometry relative="1" as="geometry">
            <Array as="points">
              <mxPoint x="1450" y="70" />
            </Array>
          </mxGeometry>
        </mxCell>
        <mxCell id="n1Ga5cI-aDsPV8AeEbfY-16" value="" style="whiteSpace=wrap;html=1;aspect=fixed;sketch=1;hachureGap=4;jiggle=2;curveFitting=1;fontFamily=Architects Daughter;fontSource=https%3A%2F%2Ffonts.googleapis.com%2Fcss%3Ffamily%3DArchitects%2BDaughter;" vertex="1" parent="1">
          <mxGeometry x="1560" y="30" width="80" height="80" as="geometry" />
        </mxCell>
        <mxCell id="n1Ga5cI-aDsPV8AeEbfY-17" value="" style="whiteSpace=wrap;html=1;aspect=fixed;sketch=1;hachureGap=4;jiggle=2;curveFitting=1;fontFamily=Architects Daughter;fontSource=https%3A%2F%2Ffonts.googleapis.com%2Fcss%3Ffamily%3DArchitects%2BDaughter;" vertex="1" parent="1">
          <mxGeometry x="1210" y="30" width="80" height="80" as="geometry" />
        </mxCell>
        <mxCell id="n1Ga5cI-aDsPV8AeEbfY-23" style="edgeStyle=orthogonalEdgeStyle;rounded=0;sketch=1;hachureGap=4;jiggle=2;curveFitting=1;orthogonalLoop=1;jettySize=auto;html=1;fontFamily=Architects Daughter;fontSource=https%3A%2F%2Ffonts.googleapis.com%2Fcss%3Ffamily%3DArchitects%2BDaughter;" edge="1" parent="1" source="n1Ga5cI-aDsPV8AeEbfY-18">
          <mxGeometry relative="1" as="geometry">
            <mxPoint x="1383" y="-60" as="targetPoint" />
            <Array as="points">
              <mxPoint x="1384" y="205" />
            </Array>
          </mxGeometry>
        </mxCell>
        <mxCell id="n1Ga5cI-aDsPV8AeEbfY-18" value="" style="ellipse;whiteSpace=wrap;html=1;aspect=fixed;sketch=1;hachureGap=4;jiggle=2;curveFitting=1;fontFamily=Architects Daughter;fontSource=https%3A%2F%2Ffonts.googleapis.com%2Fcss%3Ffamily%3DArchitects%2BDaughter;" vertex="1" parent="1">
          <mxGeometry x="1210" y="165" width="80" height="80" as="geometry" />
        </mxCell>
        <mxCell id="n1Ga5cI-aDsPV8AeEbfY-19" value="" style="ellipse;whiteSpace=wrap;html=1;aspect=fixed;sketch=1;hachureGap=4;jiggle=2;curveFitting=1;fontFamily=Architects Daughter;fontSource=https%3A%2F%2Ffonts.googleapis.com%2Fcss%3Ffamily%3DArchitects%2BDaughter;" vertex="1" parent="1">
          <mxGeometry x="1560" y="165" width="80" height="80" as="geometry" />
        </mxCell>
        <mxCell id="n1Ga5cI-aDsPV8AeEbfY-24" style="edgeStyle=orthogonalEdgeStyle;rounded=0;sketch=1;hachureGap=4;jiggle=2;curveFitting=1;orthogonalLoop=1;jettySize=auto;html=1;fontFamily=Architects Daughter;fontSource=https%3A%2F%2Ffonts.googleapis.com%2Fcss%3Ffamily%3DArchitects%2BDaughter;" edge="1" parent="1" source="n1Ga5cI-aDsPV8AeEbfY-17" target="n1Ga5cI-aDsPV8AeEbfY-11">
          <mxGeometry relative="1" as="geometry">
            <Array as="points">
              <mxPoint x="1370" y="60" />
            </Array>
          </mxGeometry>
        </mxCell>
        <mxCell id="n1Ga5cI-aDsPV8AeEbfY-25" style="edgeStyle=orthogonalEdgeStyle;rounded=0;sketch=1;hachureGap=4;jiggle=2;curveFitting=1;orthogonalLoop=1;jettySize=auto;html=1;fontFamily=Architects Daughter;fontSource=https%3A%2F%2Ffonts.googleapis.com%2Fcss%3Ffamily%3DArchitects%2BDaughter;" edge="1" parent="1" source="n1Ga5cI-aDsPV8AeEbfY-19">
          <mxGeometry relative="1" as="geometry">
            <mxPoint x="1430" y="-60" as="targetPoint" />
            <Array as="points">
              <mxPoint x="1430" y="205" />
              <mxPoint x="1430" y="-60" />
            </Array>
          </mxGeometry>
        </mxCell>
        <mxCell id="n1Ga5cI-aDsPV8AeEbfY-31" value="" style="fontColor=#0066CC;verticalAlign=top;verticalLabelPosition=bottom;labelPosition=center;align=center;html=1;outlineConnect=0;fillColor=#CCCCCC;strokeColor=#6881B3;gradientColor=none;gradientDirection=north;strokeWidth=2;shape=mxgraph.networks.hub;sketch=1;hachureGap=4;jiggle=2;curveFitting=1;fontFamily=Architects Daughter;fontSource=https%3A%2F%2Ffonts.googleapis.com%2Fcss%3Ffamily%3DArchitects%2BDaughter;" vertex="1" parent="1">
          <mxGeometry x="1975" y="-90" width="100" height="30" as="geometry" />
        </mxCell>
        <mxCell id="n1Ga5cI-aDsPV8AeEbfY-39" style="edgeStyle=orthogonalEdgeStyle;rounded=0;sketch=1;hachureGap=4;jiggle=2;curveFitting=1;orthogonalLoop=1;jettySize=auto;html=1;fontFamily=Architects Daughter;fontSource=https%3A%2F%2Ffonts.googleapis.com%2Fcss%3Ffamily%3DArchitects%2BDaughter;" edge="1" parent="1" source="n1Ga5cI-aDsPV8AeEbfY-34" target="n1Ga5cI-aDsPV8AeEbfY-31">
          <mxGeometry relative="1" as="geometry" />
        </mxCell>
        <mxCell id="n1Ga5cI-aDsPV8AeEbfY-34" value="" style="fontColor=#0066CC;verticalAlign=top;verticalLabelPosition=bottom;labelPosition=center;align=center;html=1;outlineConnect=0;fillColor=#CCCCCC;strokeColor=#6881B3;gradientColor=none;gradientDirection=north;strokeWidth=2;shape=mxgraph.networks.pc;sketch=1;hachureGap=4;jiggle=2;curveFitting=1;fontFamily=Architects Daughter;fontSource=https%3A%2F%2Ffonts.googleapis.com%2Fcss%3Ffamily%3DArchitects%2BDaughter;" vertex="1" parent="1">
          <mxGeometry x="1825" y="-110" width="100" height="70" as="geometry" />
        </mxCell>
        <mxCell id="n1Ga5cI-aDsPV8AeEbfY-40" style="edgeStyle=orthogonalEdgeStyle;rounded=0;sketch=1;hachureGap=4;jiggle=2;curveFitting=1;orthogonalLoop=1;jettySize=auto;html=1;fontFamily=Architects Daughter;fontSource=https%3A%2F%2Ffonts.googleapis.com%2Fcss%3Ffamily%3DArchitects%2BDaughter;" edge="1" parent="1" source="n1Ga5cI-aDsPV8AeEbfY-35" target="n1Ga5cI-aDsPV8AeEbfY-31">
          <mxGeometry relative="1" as="geometry" />
        </mxCell>
        <mxCell id="n1Ga5cI-aDsPV8AeEbfY-35" value="" style="fontColor=#0066CC;verticalAlign=top;verticalLabelPosition=bottom;labelPosition=center;align=center;html=1;outlineConnect=0;fillColor=#CCCCCC;strokeColor=#6881B3;gradientColor=none;gradientDirection=north;strokeWidth=2;shape=mxgraph.networks.pc;sketch=1;hachureGap=4;jiggle=2;curveFitting=1;fontFamily=Architects Daughter;fontSource=https%3A%2F%2Ffonts.googleapis.com%2Fcss%3Ffamily%3DArchitects%2BDaughter;" vertex="1" parent="1">
          <mxGeometry x="2135" y="-105" width="100" height="70" as="geometry" />
        </mxCell>
        <mxCell id="n1Ga5cI-aDsPV8AeEbfY-41" style="edgeStyle=orthogonalEdgeStyle;rounded=0;sketch=1;hachureGap=4;jiggle=2;curveFitting=1;orthogonalLoop=1;jettySize=auto;html=1;fontFamily=Architects Daughter;fontSource=https%3A%2F%2Ffonts.googleapis.com%2Fcss%3Ffamily%3DArchitects%2BDaughter;" edge="1" parent="1" source="n1Ga5cI-aDsPV8AeEbfY-36" target="n1Ga5cI-aDsPV8AeEbfY-31">
          <mxGeometry relative="1" as="geometry">
            <Array as="points">
              <mxPoint x="2005" y="45" />
            </Array>
          </mxGeometry>
        </mxCell>
        <mxCell id="n1Ga5cI-aDsPV8AeEbfY-36" value="" style="rounded=1;whiteSpace=wrap;html=1;sketch=1;hachureGap=4;jiggle=2;curveFitting=1;fontFamily=Architects Daughter;fontSource=https%3A%2F%2Ffonts.googleapis.com%2Fcss%3Ffamily%3DArchitects%2BDaughter;" vertex="1" parent="1">
          <mxGeometry x="1840" y="26.5" width="70" height="37" as="geometry" />
        </mxCell>
        <mxCell id="n1Ga5cI-aDsPV8AeEbfY-42" style="edgeStyle=orthogonalEdgeStyle;rounded=0;sketch=1;hachureGap=4;jiggle=2;curveFitting=1;orthogonalLoop=1;jettySize=auto;html=1;fontFamily=Architects Daughter;fontSource=https%3A%2F%2Ffonts.googleapis.com%2Fcss%3Ffamily%3DArchitects%2BDaughter;" edge="1" parent="1" source="n1Ga5cI-aDsPV8AeEbfY-37" target="n1Ga5cI-aDsPV8AeEbfY-31">
          <mxGeometry relative="1" as="geometry">
            <Array as="points">
              <mxPoint x="2045" y="45" />
            </Array>
          </mxGeometry>
        </mxCell>
        <mxCell id="n1Ga5cI-aDsPV8AeEbfY-37" value="" style="rounded=1;whiteSpace=wrap;html=1;sketch=1;hachureGap=4;jiggle=2;curveFitting=1;fontFamily=Architects Daughter;fontSource=https%3A%2F%2Ffonts.googleapis.com%2Fcss%3Ffamily%3DArchitects%2BDaughter;" vertex="1" parent="1">
          <mxGeometry x="2150" y="26.5" width="70" height="37" as="geometry" />
        </mxCell>
        <mxCell id="n1Ga5cI-aDsPV8AeEbfY-43" style="edgeStyle=orthogonalEdgeStyle;rounded=0;sketch=1;hachureGap=4;jiggle=2;curveFitting=1;orthogonalLoop=1;jettySize=auto;html=1;fontFamily=Architects Daughter;fontSource=https%3A%2F%2Ffonts.googleapis.com%2Fcss%3Ffamily%3DArchitects%2BDaughter;" edge="1" parent="1" source="n1Ga5cI-aDsPV8AeEbfY-38" target="n1Ga5cI-aDsPV8AeEbfY-31">
          <mxGeometry relative="1" as="geometry" />
        </mxCell>
        <mxCell id="n1Ga5cI-aDsPV8AeEbfY-38" value="" style="fontColor=#0066CC;verticalAlign=top;verticalLabelPosition=bottom;labelPosition=center;align=center;html=1;outlineConnect=0;fillColor=#CCCCCC;strokeColor=#6881B3;gradientColor=none;gradientDirection=north;strokeWidth=2;shape=mxgraph.networks.printer;sketch=1;hachureGap=4;jiggle=2;curveFitting=1;fontFamily=Architects Daughter;fontSource=https%3A%2F%2Ffonts.googleapis.com%2Fcss%3Ffamily%3DArchitects%2BDaughter;" vertex="1" parent="1">
          <mxGeometry x="1975" y="140" width="100" height="100" as="geometry" />
        </mxCell>
        <mxCell id="n1Ga5cI-aDsPV8AeEbfY-44" value="" style="fontColor=#0066CC;verticalAlign=top;verticalLabelPosition=bottom;labelPosition=center;align=center;html=1;outlineConnect=0;fillColor=#CCCCCC;strokeColor=#6881B3;gradientColor=none;gradientDirection=north;strokeWidth=2;shape=mxgraph.networks.hub;sketch=1;hachureGap=4;jiggle=2;curveFitting=1;fontFamily=Architects Daughter;fontSource=https%3A%2F%2Ffonts.googleapis.com%2Fcss%3Ffamily%3DArchitects%2BDaughter;" vertex="1" parent="1">
          <mxGeometry x="1355" y="845" width="100" height="30" as="geometry" />
        </mxCell>
        <mxCell id="n1Ga5cI-aDsPV8AeEbfY-45" style="edgeStyle=orthogonalEdgeStyle;rounded=0;sketch=1;hachureGap=4;jiggle=2;curveFitting=1;orthogonalLoop=1;jettySize=auto;html=1;fontFamily=Architects Daughter;fontSource=https%3A%2F%2Ffonts.googleapis.com%2Fcss%3Ffamily%3DArchitects%2BDaughter;" edge="1" parent="1" source="n1Ga5cI-aDsPV8AeEbfY-46" target="n1Ga5cI-aDsPV8AeEbfY-44">
          <mxGeometry relative="1" as="geometry">
            <Array as="points">
              <mxPoint x="1370" y="770" />
            </Array>
          </mxGeometry>
        </mxCell>
        <mxCell id="n1Ga5cI-aDsPV8AeEbfY-46" value="" style="ellipse;whiteSpace=wrap;html=1;aspect=fixed;sketch=1;hachureGap=4;jiggle=2;curveFitting=1;fontFamily=Architects Daughter;fontSource=https%3A%2F%2Ffonts.googleapis.com%2Fcss%3Ffamily%3DArchitects%2BDaughter;" vertex="1" parent="1">
          <mxGeometry x="1200" y="730" width="80" height="80" as="geometry" />
        </mxCell>
        <mxCell id="n1Ga5cI-aDsPV8AeEbfY-47" style="edgeStyle=orthogonalEdgeStyle;rounded=0;sketch=1;hachureGap=4;jiggle=2;curveFitting=1;orthogonalLoop=1;jettySize=auto;html=1;fontFamily=Architects Daughter;fontSource=https%3A%2F%2Ffonts.googleapis.com%2Fcss%3Ffamily%3DArchitects%2BDaughter;" edge="1" parent="1" source="n1Ga5cI-aDsPV8AeEbfY-48" target="n1Ga5cI-aDsPV8AeEbfY-44">
          <mxGeometry relative="1" as="geometry">
            <Array as="points">
              <mxPoint x="1440" y="770" />
            </Array>
          </mxGeometry>
        </mxCell>
        <mxCell id="n1Ga5cI-aDsPV8AeEbfY-48" value="" style="ellipse;whiteSpace=wrap;html=1;aspect=fixed;sketch=1;hachureGap=4;jiggle=2;curveFitting=1;fontFamily=Architects Daughter;fontSource=https%3A%2F%2Ffonts.googleapis.com%2Fcss%3Ffamily%3DArchitects%2BDaughter;" vertex="1" parent="1">
          <mxGeometry x="1550" y="730" width="80" height="80" as="geometry" />
        </mxCell>
        <mxCell id="n1Ga5cI-aDsPV8AeEbfY-49" style="edgeStyle=orthogonalEdgeStyle;rounded=0;sketch=1;hachureGap=4;jiggle=2;curveFitting=1;orthogonalLoop=1;jettySize=auto;html=1;fontFamily=Architects Daughter;fontSource=https%3A%2F%2Ffonts.googleapis.com%2Fcss%3Ffamily%3DArchitects%2BDaughter;" edge="1" parent="1" source="n1Ga5cI-aDsPV8AeEbfY-50" target="n1Ga5cI-aDsPV8AeEbfY-44">
          <mxGeometry relative="1" as="geometry">
            <Array as="points">
              <mxPoint x="1440" y="940" />
            </Array>
          </mxGeometry>
        </mxCell>
        <mxCell id="n1Ga5cI-aDsPV8AeEbfY-50" value="" style="whiteSpace=wrap;html=1;aspect=fixed;sketch=1;hachureGap=4;jiggle=2;curveFitting=1;fontFamily=Architects Daughter;fontSource=https%3A%2F%2Ffonts.googleapis.com%2Fcss%3Ffamily%3DArchitects%2BDaughter;" vertex="1" parent="1">
          <mxGeometry x="1550" y="900" width="80" height="80" as="geometry" />
        </mxCell>
        <mxCell id="n1Ga5cI-aDsPV8AeEbfY-51" value="" style="whiteSpace=wrap;html=1;aspect=fixed;sketch=1;hachureGap=4;jiggle=2;curveFitting=1;fontFamily=Architects Daughter;fontSource=https%3A%2F%2Ffonts.googleapis.com%2Fcss%3Ffamily%3DArchitects%2BDaughter;" vertex="1" parent="1">
          <mxGeometry x="1200" y="900" width="80" height="80" as="geometry" />
        </mxCell>
        <mxCell id="n1Ga5cI-aDsPV8AeEbfY-52" style="edgeStyle=orthogonalEdgeStyle;rounded=0;sketch=1;hachureGap=4;jiggle=2;curveFitting=1;orthogonalLoop=1;jettySize=auto;html=1;fontFamily=Architects Daughter;fontSource=https%3A%2F%2Ffonts.googleapis.com%2Fcss%3Ffamily%3DArchitects%2BDaughter;" edge="1" parent="1" source="n1Ga5cI-aDsPV8AeEbfY-53" target="n1Ga5cI-aDsPV8AeEbfY-44">
          <mxGeometry relative="1" as="geometry">
            <mxPoint x="1390" y="880" as="targetPoint" />
            <Array as="points">
              <mxPoint x="1390" y="1125" />
            </Array>
          </mxGeometry>
        </mxCell>
        <mxCell id="n1Ga5cI-aDsPV8AeEbfY-53" value="" style="ellipse;whiteSpace=wrap;html=1;aspect=fixed;sketch=1;hachureGap=4;jiggle=2;curveFitting=1;fontFamily=Architects Daughter;fontSource=https%3A%2F%2Ffonts.googleapis.com%2Fcss%3Ffamily%3DArchitects%2BDaughter;" vertex="1" parent="1">
          <mxGeometry x="1200" y="1085" width="80" height="80" as="geometry" />
        </mxCell>
        <mxCell id="n1Ga5cI-aDsPV8AeEbfY-54" value="" style="ellipse;whiteSpace=wrap;html=1;aspect=fixed;sketch=1;hachureGap=4;jiggle=2;curveFitting=1;fontFamily=Architects Daughter;fontSource=https%3A%2F%2Ffonts.googleapis.com%2Fcss%3Ffamily%3DArchitects%2BDaughter;" vertex="1" parent="1">
          <mxGeometry x="1550" y="1085" width="80" height="80" as="geometry" />
        </mxCell>
        <mxCell id="n1Ga5cI-aDsPV8AeEbfY-55" style="edgeStyle=orthogonalEdgeStyle;rounded=0;sketch=1;hachureGap=4;jiggle=2;curveFitting=1;orthogonalLoop=1;jettySize=auto;html=1;fontFamily=Architects Daughter;fontSource=https%3A%2F%2Ffonts.googleapis.com%2Fcss%3Ffamily%3DArchitects%2BDaughter;" edge="1" parent="1" source="n1Ga5cI-aDsPV8AeEbfY-51" target="n1Ga5cI-aDsPV8AeEbfY-44">
          <mxGeometry relative="1" as="geometry">
            <Array as="points">
              <mxPoint x="1370" y="940" />
            </Array>
          </mxGeometry>
        </mxCell>
        <mxCell id="n1Ga5cI-aDsPV8AeEbfY-56" style="edgeStyle=orthogonalEdgeStyle;rounded=0;sketch=1;hachureGap=4;jiggle=2;curveFitting=1;orthogonalLoop=1;jettySize=auto;html=1;fontFamily=Architects Daughter;fontSource=https%3A%2F%2Ffonts.googleapis.com%2Fcss%3Ffamily%3DArchitects%2BDaughter;" edge="1" parent="1" source="n1Ga5cI-aDsPV8AeEbfY-54" target="n1Ga5cI-aDsPV8AeEbfY-44">
          <mxGeometry relative="1" as="geometry">
            <Array as="points">
              <mxPoint x="1420" y="1125" />
            </Array>
          </mxGeometry>
        </mxCell>
        <mxCell id="n1Ga5cI-aDsPV8AeEbfY-72" style="edgeStyle=orthogonalEdgeStyle;rounded=0;sketch=1;hachureGap=4;jiggle=2;curveFitting=1;orthogonalLoop=1;jettySize=auto;html=1;fontFamily=Architects Daughter;fontSource=https%3A%2F%2Ffonts.googleapis.com%2Fcss%3Ffamily%3DArchitects%2BDaughter;" edge="1" parent="1" source="n1Ga5cI-aDsPV8AeEbfY-60" target="n1Ga5cI-aDsPV8AeEbfY-44">
          <mxGeometry relative="1" as="geometry" />
        </mxCell>
        <mxCell id="n1Ga5cI-aDsPV8AeEbfY-60" value="" style="fontColor=#0066CC;verticalAlign=top;verticalLabelPosition=bottom;labelPosition=center;align=center;html=1;outlineConnect=0;fillColor=#CCCCCC;strokeColor=#6881B3;gradientColor=none;gradientDirection=north;strokeWidth=2;shape=mxgraph.networks.pc;sketch=1;hachureGap=4;jiggle=2;curveFitting=1;fontFamily=Architects Daughter;fontSource=https%3A%2F%2Ffonts.googleapis.com%2Fcss%3Ffamily%3DArchitects%2BDaughter;" vertex="1" parent="1">
          <mxGeometry x="1015" y="830" width="100" height="70" as="geometry" />
        </mxCell>
        <mxCell id="n1Ga5cI-aDsPV8AeEbfY-71" style="edgeStyle=orthogonalEdgeStyle;rounded=0;sketch=1;hachureGap=4;jiggle=2;curveFitting=1;orthogonalLoop=1;jettySize=auto;html=1;fontFamily=Architects Daughter;fontSource=https%3A%2F%2Ffonts.googleapis.com%2Fcss%3Ffamily%3DArchitects%2BDaughter;" edge="1" parent="1" source="n1Ga5cI-aDsPV8AeEbfY-62" target="n1Ga5cI-aDsPV8AeEbfY-44">
          <mxGeometry relative="1" as="geometry" />
        </mxCell>
        <mxCell id="n1Ga5cI-aDsPV8AeEbfY-62" value="" style="fontColor=#0066CC;verticalAlign=top;verticalLabelPosition=bottom;labelPosition=center;align=center;html=1;outlineConnect=0;fillColor=#CCCCCC;strokeColor=#6881B3;gradientColor=none;gradientDirection=north;strokeWidth=2;shape=mxgraph.networks.pc;sketch=1;hachureGap=4;jiggle=2;curveFitting=1;fontFamily=Architects Daughter;fontSource=https%3A%2F%2Ffonts.googleapis.com%2Fcss%3Ffamily%3DArchitects%2BDaughter;" vertex="1" parent="1">
          <mxGeometry x="1710" y="830" width="100" height="70" as="geometry" />
        </mxCell>
        <mxCell id="n1Ga5cI-aDsPV8AeEbfY-64" value="" style="rounded=1;whiteSpace=wrap;html=1;sketch=1;hachureGap=4;jiggle=2;curveFitting=1;fontFamily=Architects Daughter;fontSource=https%3A%2F%2Ffonts.googleapis.com%2Fcss%3Ffamily%3DArchitects%2BDaughter;" vertex="1" parent="1">
          <mxGeometry x="1040" y="986.5" width="70" height="37" as="geometry" />
        </mxCell>
        <mxCell id="n1Ga5cI-aDsPV8AeEbfY-70" style="edgeStyle=orthogonalEdgeStyle;rounded=0;sketch=1;hachureGap=4;jiggle=2;curveFitting=1;orthogonalLoop=1;jettySize=auto;html=1;fontFamily=Architects Daughter;fontSource=https%3A%2F%2Ffonts.googleapis.com%2Fcss%3Ffamily%3DArchitects%2BDaughter;" edge="1" parent="1" source="n1Ga5cI-aDsPV8AeEbfY-66" target="n1Ga5cI-aDsPV8AeEbfY-44">
          <mxGeometry relative="1" as="geometry">
            <mxPoint x="1430" y="880" as="targetPoint" />
            <Array as="points">
              <mxPoint x="1430" y="1005" />
            </Array>
          </mxGeometry>
        </mxCell>
        <mxCell id="n1Ga5cI-aDsPV8AeEbfY-66" value="" style="rounded=1;whiteSpace=wrap;html=1;sketch=1;hachureGap=4;jiggle=2;curveFitting=1;fontFamily=Architects Daughter;fontSource=https%3A%2F%2Ffonts.googleapis.com%2Fcss%3Ffamily%3DArchitects%2BDaughter;" vertex="1" parent="1">
          <mxGeometry x="1725" y="986.5" width="70" height="37" as="geometry" />
        </mxCell>
        <mxCell id="n1Ga5cI-aDsPV8AeEbfY-68" value="" style="fontColor=#0066CC;verticalAlign=top;verticalLabelPosition=bottom;labelPosition=center;align=center;html=1;outlineConnect=0;fillColor=#CCCCCC;strokeColor=#6881B3;gradientColor=none;gradientDirection=north;strokeWidth=2;shape=mxgraph.networks.printer;sketch=1;hachureGap=4;jiggle=2;curveFitting=1;fontFamily=Architects Daughter;fontSource=https%3A%2F%2Ffonts.googleapis.com%2Fcss%3Ffamily%3DArchitects%2BDaughter;" vertex="1" parent="1">
          <mxGeometry x="1355" y="1180" width="100" height="100" as="geometry" />
        </mxCell>
        <mxCell id="n1Ga5cI-aDsPV8AeEbfY-69" style="edgeStyle=orthogonalEdgeStyle;rounded=0;sketch=1;hachureGap=4;jiggle=2;curveFitting=1;orthogonalLoop=1;jettySize=auto;html=1;fontFamily=Architects Daughter;fontSource=https%3A%2F%2Ffonts.googleapis.com%2Fcss%3Ffamily%3DArchitects%2BDaughter;" edge="1" parent="1" source="n1Ga5cI-aDsPV8AeEbfY-64" target="n1Ga5cI-aDsPV8AeEbfY-44">
          <mxGeometry relative="1" as="geometry">
            <Array as="points">
              <mxPoint x="1380" y="1005" />
            </Array>
          </mxGeometry>
        </mxCell>
        <mxCell id="n1Ga5cI-aDsPV8AeEbfY-74" value="&lt;font style=&quot;font-size: 20px;&quot;&gt;172.0.0.0/24&lt;/font&gt;" style="text;html=1;align=center;verticalAlign=middle;resizable=0;points=[];autosize=1;strokeColor=none;fillColor=none;fontFamily=Architects Daughter;fontSource=https%3A%2F%2Ffonts.googleapis.com%2Fcss%3Ffamily%3DArchitects%2BDaughter;" vertex="1" parent="1">
          <mxGeometry x="575" y="95" width="130" height="40" as="geometry" />
        </mxCell>
        <mxCell id="n1Ga5cI-aDsPV8AeEbfY-75" value="считыватель" style="text;html=1;align=center;verticalAlign=middle;resizable=0;points=[];autosize=1;strokeColor=none;fillColor=none;fontFamily=Architects Daughter;fontSource=https%3A%2F%2Ffonts.googleapis.com%2Fcss%3Ffamily%3DArchitects%2BDaughter;" vertex="1" parent="1">
          <mxGeometry x="935" y="175" width="90" height="30" as="geometry" />
        </mxCell>
        <mxCell id="n1Ga5cI-aDsPV8AeEbfY-76" value="RFID кольцо" style="text;html=1;align=center;verticalAlign=middle;resizable=0;points=[];autosize=1;strokeColor=none;fillColor=none;fontFamily=Architects Daughter;fontSource=https%3A%2F%2Ffonts.googleapis.com%2Fcss%3Ffamily%3DArchitects%2BDaughter;" vertex="1" parent="1">
          <mxGeometry x="1200" y="-152" width="90" height="30" as="geometry" />
        </mxCell>
        <mxCell id="n1Ga5cI-aDsPV8AeEbfY-77" value="DIN контроллер" style="text;html=1;align=center;verticalAlign=middle;resizable=0;points=[];autosize=1;strokeColor=none;fillColor=none;fontFamily=Architects Daughter;fontSource=https%3A%2F%2Ffonts.googleapis.com%2Fcss%3Ffamily%3DArchitects%2BDaughter;" vertex="1" parent="1">
          <mxGeometry x="1200" width="100" height="30" as="geometry" />
        </mxCell>
        <mxCell id="n1Ga5cI-aDsPV8AeEbfY-78" value="RFID кольцо" style="text;html=1;align=center;verticalAlign=middle;resizable=0;points=[];autosize=1;strokeColor=none;fillColor=none;fontFamily=Architects Daughter;fontSource=https%3A%2F%2Ffonts.googleapis.com%2Fcss%3Ffamily%3DArchitects%2BDaughter;" vertex="1" parent="1">
          <mxGeometry x="1560" y="-145" width="90" height="30" as="geometry" />
        </mxCell>
        <mxCell id="n1Ga5cI-aDsPV8AeEbfY-79" value="RFID кольцо" style="text;html=1;align=center;verticalAlign=middle;resizable=0;points=[];autosize=1;strokeColor=none;fillColor=none;fontFamily=Architects Daughter;fontSource=https%3A%2F%2Ffonts.googleapis.com%2Fcss%3Ffamily%3DArchitects%2BDaughter;" vertex="1" parent="1">
          <mxGeometry x="1555" y="131.5" width="90" height="30" as="geometry" />
        </mxCell>
        <mxCell id="n1Ga5cI-aDsPV8AeEbfY-80" value="RFID кольцо" style="text;html=1;align=center;verticalAlign=middle;resizable=0;points=[];autosize=1;strokeColor=none;fillColor=none;fontFamily=Architects Daughter;fontSource=https%3A%2F%2Ffonts.googleapis.com%2Fcss%3Ffamily%3DArchitects%2BDaughter;" vertex="1" parent="1">
          <mxGeometry x="1205" y="135" width="90" height="30" as="geometry" />
        </mxCell>
        <mxCell id="n1Ga5cI-aDsPV8AeEbfY-81" value="DIN контроллер" style="text;html=1;align=center;verticalAlign=middle;resizable=0;points=[];autosize=1;strokeColor=none;fillColor=none;fontFamily=Architects Daughter;fontSource=https%3A%2F%2Ffonts.googleapis.com%2Fcss%3Ffamily%3DArchitects%2BDaughter;" vertex="1" parent="1">
          <mxGeometry x="1555" y="-3.5" width="100" height="30" as="geometry" />
        </mxCell>
        <mxCell id="n1Ga5cI-aDsPV8AeEbfY-82" value="RFID кольцо" style="text;html=1;align=center;verticalAlign=middle;resizable=0;points=[];autosize=1;strokeColor=none;fillColor=none;fontFamily=Architects Daughter;fontSource=https%3A%2F%2Ffonts.googleapis.com%2Fcss%3Ffamily%3DArchitects%2BDaughter;" vertex="1" parent="1">
          <mxGeometry x="1195" y="690" width="90" height="30" as="geometry" />
        </mxCell>
        <mxCell id="n1Ga5cI-aDsPV8AeEbfY-83" value="RFID кольцо" style="text;html=1;align=center;verticalAlign=middle;resizable=0;points=[];autosize=1;strokeColor=none;fillColor=none;fontFamily=Architects Daughter;fontSource=https%3A%2F%2Ffonts.googleapis.com%2Fcss%3Ffamily%3DArchitects%2BDaughter;" vertex="1" parent="1">
          <mxGeometry x="1545" y="690" width="90" height="30" as="geometry" />
        </mxCell>
        <mxCell id="n1Ga5cI-aDsPV8AeEbfY-84" value="DIN контроллер" style="text;html=1;align=center;verticalAlign=middle;resizable=0;points=[];autosize=1;strokeColor=none;fillColor=none;fontFamily=Architects Daughter;fontSource=https%3A%2F%2Ffonts.googleapis.com%2Fcss%3Ffamily%3DArchitects%2BDaughter;" vertex="1" parent="1">
          <mxGeometry x="1190" y="870" width="100" height="30" as="geometry" />
        </mxCell>
        <mxCell id="n1Ga5cI-aDsPV8AeEbfY-85" value="DIN контроллер" style="text;html=1;align=center;verticalAlign=middle;resizable=0;points=[];autosize=1;strokeColor=none;fillColor=none;fontFamily=Architects Daughter;fontSource=https%3A%2F%2Ffonts.googleapis.com%2Fcss%3Ffamily%3DArchitects%2BDaughter;" vertex="1" parent="1">
          <mxGeometry x="1540" y="875" width="100" height="30" as="geometry" />
        </mxCell>
        <mxCell id="n1Ga5cI-aDsPV8AeEbfY-86" value="RFID кольцо" style="text;html=1;align=center;verticalAlign=middle;resizable=0;points=[];autosize=1;strokeColor=none;fillColor=none;fontFamily=Architects Daughter;fontSource=https%3A%2F%2Ffonts.googleapis.com%2Fcss%3Ffamily%3DArchitects%2BDaughter;" vertex="1" parent="1">
          <mxGeometry x="1195" y="1055" width="90" height="30" as="geometry" />
        </mxCell>
        <mxCell id="n1Ga5cI-aDsPV8AeEbfY-87" value="RFID кольцо" style="text;html=1;align=center;verticalAlign=middle;resizable=0;points=[];autosize=1;strokeColor=none;fillColor=none;fontFamily=Architects Daughter;fontSource=https%3A%2F%2Ffonts.googleapis.com%2Fcss%3Ffamily%3DArchitects%2BDaughter;" vertex="1" parent="1">
          <mxGeometry x="1550" y="1055" width="90" height="30" as="geometry" />
        </mxCell>
        <mxCell id="n1Ga5cI-aDsPV8AeEbfY-88" value="считыватель" style="text;html=1;align=center;verticalAlign=middle;resizable=0;points=[];autosize=1;strokeColor=none;fillColor=none;fontFamily=Architects Daughter;fontSource=https%3A%2F%2Ffonts.googleapis.com%2Fcss%3Ffamily%3DArchitects%2BDaughter;" vertex="1" parent="1">
          <mxGeometry x="1030" y="950" width="90" height="30" as="geometry" />
        </mxCell>
        <mxCell id="n1Ga5cI-aDsPV8AeEbfY-89" value="считыватель" style="text;html=1;align=center;verticalAlign=middle;resizable=0;points=[];autosize=1;strokeColor=none;fillColor=none;fontFamily=Architects Daughter;fontSource=https%3A%2F%2Ffonts.googleapis.com%2Fcss%3Ffamily%3DArchitects%2BDaughter;" vertex="1" parent="1">
          <mxGeometry x="1720" y="950" width="90" height="30" as="geometry" />
        </mxCell>
        <mxCell id="n1Ga5cI-aDsPV8AeEbfY-90" style="edgeStyle=orthogonalEdgeStyle;rounded=0;sketch=1;hachureGap=4;jiggle=2;curveFitting=1;orthogonalLoop=1;jettySize=auto;html=1;entryX=0.5;entryY=1;entryDx=0;entryDy=0;entryPerimeter=0;fontFamily=Architects Daughter;fontSource=https%3A%2F%2Ffonts.googleapis.com%2Fcss%3Ffamily%3DArchitects%2BDaughter;" edge="1" parent="1" source="n1Ga5cI-aDsPV8AeEbfY-68" target="n1Ga5cI-aDsPV8AeEbfY-44">
          <mxGeometry relative="1" as="geometry" />
        </mxCell>
        <mxCell id="n1Ga5cI-aDsPV8AeEbfY-91" value="&lt;font style=&quot;font-size: 20px;&quot;&gt;оптика&lt;/font&gt;" style="text;html=1;align=center;verticalAlign=middle;resizable=0;points=[];autosize=1;strokeColor=none;fillColor=none;fontFamily=Architects Daughter;fontSource=https%3A%2F%2Ffonts.googleapis.com%2Fcss%3Ffamily%3DArchitects%2BDaughter;" vertex="1" parent="1">
          <mxGeometry x="1375" y="-410" width="80" height="40" as="geometry" />
        </mxCell>
        <mxCell id="n1Ga5cI-aDsPV8AeEbfY-93" value="&lt;font style=&quot;font-size: 20px;&quot;&gt;Бухгалтерия&lt;/font&gt;" style="text;html=1;align=center;verticalAlign=middle;resizable=0;points=[];autosize=1;strokeColor=none;fillColor=none;fontFamily=Architects Daughter;fontSource=https%3A%2F%2Ffonts.googleapis.com%2Fcss%3Ffamily%3DArchitects%2BDaughter;" vertex="1" parent="1">
          <mxGeometry x="830" y="270" width="130" height="40" as="geometry" />
        </mxCell>
        <mxCell id="n1Ga5cI-aDsPV8AeEbfY-95" value="&lt;font style=&quot;font-size: 20px;&quot;&gt;Браковка&lt;/font&gt;" style="text;html=1;align=center;verticalAlign=middle;resizable=0;points=[];autosize=1;strokeColor=none;fillColor=none;fontFamily=Architects Daughter;fontSource=https%3A%2F%2Ffonts.googleapis.com%2Fcss%3Ffamily%3DArchitects%2BDaughter;" vertex="1" parent="1">
          <mxGeometry x="1975" y="270" width="100" height="40" as="geometry" />
        </mxCell>
        <mxCell id="n1Ga5cI-aDsPV8AeEbfY-96" value="&lt;font style=&quot;font-size: 20px;&quot;&gt;БРУТТО&lt;/font&gt;" style="text;html=1;align=center;verticalAlign=middle;resizable=0;points=[];autosize=1;strokeColor=none;fillColor=none;fontFamily=Architects Daughter;fontSource=https%3A%2F%2Ffonts.googleapis.com%2Fcss%3Ffamily%3DArchitects%2BDaughter;" vertex="1" parent="1">
          <mxGeometry x="1240" y="270" width="100" height="40" as="geometry" />
        </mxCell>
        <mxCell id="n1Ga5cI-aDsPV8AeEbfY-99" value="&lt;font style=&quot;font-size: 20px;&quot;&gt;Тара&lt;/font&gt;" style="text;html=1;align=center;verticalAlign=middle;resizable=0;points=[];autosize=1;strokeColor=none;fillColor=none;fontFamily=Architects Daughter;fontSource=https%3A%2F%2Ffonts.googleapis.com%2Fcss%3Ffamily%3DArchitects%2BDaughter;" vertex="1" parent="1">
          <mxGeometry x="1210" y="620" width="60" height="40" as="geometry" />
        </mxCell>
        <mxCell id="n1Ga5cI-aDsPV8AeEbfY-117" style="edgeStyle=orthogonalEdgeStyle;rounded=0;sketch=1;hachureGap=4;jiggle=2;curveFitting=1;orthogonalLoop=1;jettySize=auto;html=1;fontFamily=Architects Daughter;fontSource=https%3A%2F%2Ffonts.googleapis.com%2Fcss%3Ffamily%3DArchitects%2BDaughter;" edge="1" parent="1" source="n1Ga5cI-aDsPV8AeEbfY-100" target="n1Ga5cI-aDsPV8AeEbfY-111">
          <mxGeometry relative="1" as="geometry">
            <Array as="points">
              <mxPoint x="2020" y="-310" />
              <mxPoint x="2020" y="-310" />
            </Array>
          </mxGeometry>
        </mxCell>
        <mxCell id="n1Ga5cI-aDsPV8AeEbfY-100" value="" style="html=1;outlineConnect=0;fillColor=#CCCCCC;strokeColor=#6881B3;gradientColor=none;gradientDirection=north;strokeWidth=2;shape=mxgraph.networks.bus;gradientColor=none;gradientDirection=north;fontColor=#ffffff;perimeter=backbonePerimeter;backboneSize=20;sketch=1;hachureGap=4;jiggle=2;curveFitting=1;fontFamily=Architects Daughter;fontSource=https%3A%2F%2Ffonts.googleapis.com%2Fcss%3Ffamily%3DArchitects%2BDaughter;" vertex="1" parent="1">
          <mxGeometry x="1440" y="-350" width="590" height="20" as="geometry" />
        </mxCell>
        <mxCell id="n1Ga5cI-aDsPV8AeEbfY-106" style="edgeStyle=orthogonalEdgeStyle;rounded=0;sketch=1;hachureGap=4;jiggle=2;curveFitting=1;orthogonalLoop=1;jettySize=auto;html=1;fontFamily=Architects Daughter;fontSource=https%3A%2F%2Ffonts.googleapis.com%2Fcss%3Ffamily%3DArchitects%2BDaughter;" edge="1" parent="1" source="n1Ga5cI-aDsPV8AeEbfY-104" target="n1Ga5cI-aDsPV8AeEbfY-7">
          <mxGeometry relative="1" as="geometry">
            <Array as="points">
              <mxPoint x="800" y="-330" />
              <mxPoint x="800" y="-330" />
            </Array>
          </mxGeometry>
        </mxCell>
        <mxCell id="n1Ga5cI-aDsPV8AeEbfY-104" value="" style="triangle;whiteSpace=wrap;html=1;sketch=1;hachureGap=4;jiggle=2;curveFitting=1;fontFamily=Architects Daughter;fontSource=https%3A%2F%2Ffonts.googleapis.com%2Fcss%3Ffamily%3DArchitects%2BDaughter;rotation=-90;" vertex="1" parent="1">
          <mxGeometry x="770" y="-260" width="60" height="80" as="geometry" />
        </mxCell>
        <mxCell id="n1Ga5cI-aDsPV8AeEbfY-108" value="медиаконвертер" style="text;html=1;align=center;verticalAlign=middle;resizable=0;points=[];autosize=1;strokeColor=none;fillColor=none;fontFamily=Architects Daughter;fontSource=https%3A%2F%2Ffonts.googleapis.com%2Fcss%3Ffamily%3DArchitects%2BDaughter;" vertex="1" parent="1">
          <mxGeometry x="661.88" y="-235" width="110" height="30" as="geometry" />
        </mxCell>
        <mxCell id="n1Ga5cI-aDsPV8AeEbfY-119" style="edgeStyle=orthogonalEdgeStyle;rounded=0;sketch=1;hachureGap=4;jiggle=2;curveFitting=1;orthogonalLoop=1;jettySize=auto;html=1;fontFamily=Architects Daughter;fontSource=https%3A%2F%2Ffonts.googleapis.com%2Fcss%3Ffamily%3DArchitects%2BDaughter;" edge="1" parent="1" source="n1Ga5cI-aDsPV8AeEbfY-109" target="n1Ga5cI-aDsPV8AeEbfY-11">
          <mxGeometry relative="1" as="geometry">
            <Array as="points">
              <mxPoint x="1355" y="-140" />
              <mxPoint x="1380" y="-140" />
            </Array>
          </mxGeometry>
        </mxCell>
        <mxCell id="n1Ga5cI-aDsPV8AeEbfY-109" value="" style="triangle;whiteSpace=wrap;html=1;sketch=1;hachureGap=4;jiggle=2;curveFitting=1;fontFamily=Architects Daughter;fontSource=https%3A%2F%2Ffonts.googleapis.com%2Fcss%3Ffamily%3DArchitects%2BDaughter;rotation=90;" vertex="1" parent="1">
          <mxGeometry x="1325" y="-260" width="60" height="80" as="geometry" />
        </mxCell>
        <mxCell id="n1Ga5cI-aDsPV8AeEbfY-115" style="edgeStyle=orthogonalEdgeStyle;rounded=0;sketch=1;hachureGap=4;jiggle=2;curveFitting=1;orthogonalLoop=1;jettySize=auto;html=1;fontFamily=Architects Daughter;fontSource=https%3A%2F%2Ffonts.googleapis.com%2Fcss%3Ffamily%3DArchitects%2BDaughter;" edge="1" parent="1" source="n1Ga5cI-aDsPV8AeEbfY-110" target="n1Ga5cI-aDsPV8AeEbfY-100">
          <mxGeometry relative="1" as="geometry">
            <Array as="points">
              <mxPoint x="1485" y="-310" />
              <mxPoint x="1485" y="-310" />
            </Array>
          </mxGeometry>
        </mxCell>
        <mxCell id="n1Ga5cI-aDsPV8AeEbfY-110" value="" style="triangle;whiteSpace=wrap;html=1;sketch=1;hachureGap=4;jiggle=2;curveFitting=1;fontFamily=Architects Daughter;fontSource=https%3A%2F%2Ffonts.googleapis.com%2Fcss%3Ffamily%3DArchitects%2BDaughter;rotation=-90;" vertex="1" parent="1">
          <mxGeometry x="1455" y="-260" width="60" height="80" as="geometry" />
        </mxCell>
        <mxCell id="n1Ga5cI-aDsPV8AeEbfY-118" style="edgeStyle=orthogonalEdgeStyle;rounded=0;sketch=1;hachureGap=4;jiggle=2;curveFitting=1;orthogonalLoop=1;jettySize=auto;html=1;fontFamily=Architects Daughter;fontSource=https%3A%2F%2Ffonts.googleapis.com%2Fcss%3Ffamily%3DArchitects%2BDaughter;" edge="1" parent="1" source="n1Ga5cI-aDsPV8AeEbfY-111" target="n1Ga5cI-aDsPV8AeEbfY-31">
          <mxGeometry relative="1" as="geometry" />
        </mxCell>
        <mxCell id="n1Ga5cI-aDsPV8AeEbfY-111" value="" style="triangle;whiteSpace=wrap;html=1;sketch=1;hachureGap=4;jiggle=2;curveFitting=1;fontFamily=Architects Daughter;fontSource=https%3A%2F%2Ffonts.googleapis.com%2Fcss%3Ffamily%3DArchitects%2BDaughter;rotation=90;" vertex="1" parent="1">
          <mxGeometry x="1990" y="-260" width="60" height="80" as="geometry" />
        </mxCell>
        <mxCell id="n1Ga5cI-aDsPV8AeEbfY-121" style="edgeStyle=orthogonalEdgeStyle;rounded=0;sketch=1;hachureGap=4;jiggle=2;curveFitting=1;orthogonalLoop=1;jettySize=auto;html=1;fontFamily=Architects Daughter;fontSource=https%3A%2F%2Ffonts.googleapis.com%2Fcss%3Ffamily%3DArchitects%2BDaughter;" edge="1" parent="1" source="n1Ga5cI-aDsPV8AeEbfY-112" target="n1Ga5cI-aDsPV8AeEbfY-10">
          <mxGeometry relative="1" as="geometry" />
        </mxCell>
        <mxCell id="n1Ga5cI-aDsPV8AeEbfY-112" value="" style="triangle;whiteSpace=wrap;html=1;sketch=1;hachureGap=4;jiggle=2;curveFitting=1;fontFamily=Architects Daughter;fontSource=https%3A%2F%2Ffonts.googleapis.com%2Fcss%3Ffamily%3DArchitects%2BDaughter;rotation=90;" vertex="1" parent="1">
          <mxGeometry x="1385" y="270" width="60" height="80" as="geometry" />
        </mxCell>
        <mxCell id="n1Ga5cI-aDsPV8AeEbfY-126" style="edgeStyle=orthogonalEdgeStyle;rounded=0;sketch=1;hachureGap=4;jiggle=2;curveFitting=1;orthogonalLoop=1;jettySize=auto;html=1;fontFamily=Architects Daughter;fontSource=https%3A%2F%2Ffonts.googleapis.com%2Fcss%3Ffamily%3DArchitects%2BDaughter;" edge="1" parent="1" source="n1Ga5cI-aDsPV8AeEbfY-113" target="n1Ga5cI-aDsPV8AeEbfY-44">
          <mxGeometry relative="1" as="geometry" />
        </mxCell>
        <mxCell id="n1Ga5cI-aDsPV8AeEbfY-113" value="" style="triangle;whiteSpace=wrap;html=1;sketch=1;hachureGap=4;jiggle=2;curveFitting=1;fontFamily=Architects Daughter;fontSource=https%3A%2F%2Ffonts.googleapis.com%2Fcss%3Ffamily%3DArchitects%2BDaughter;rotation=90;" vertex="1" parent="1">
          <mxGeometry x="1385" y="570" width="60" height="80" as="geometry" />
        </mxCell>
        <mxCell id="n1Ga5cI-aDsPV8AeEbfY-123" value="медиаконвертер" style="text;html=1;align=center;verticalAlign=middle;resizable=0;points=[];autosize=1;strokeColor=none;fillColor=none;fontFamily=Architects Daughter;fontSource=https%3A%2F%2Ffonts.googleapis.com%2Fcss%3Ffamily%3DArchitects%2BDaughter;" vertex="1" parent="1">
          <mxGeometry x="1230" y="-240" width="110" height="30" as="geometry" />
        </mxCell>
        <mxCell id="n1Ga5cI-aDsPV8AeEbfY-124" value="медиаконвертер" style="text;html=1;align=center;verticalAlign=middle;resizable=0;points=[];autosize=1;strokeColor=none;fillColor=none;fontFamily=Architects Daughter;fontSource=https%3A%2F%2Ffonts.googleapis.com%2Fcss%3Ffamily%3DArchitects%2BDaughter;" vertex="1" parent="1">
          <mxGeometry x="1500" y="-240" width="110" height="30" as="geometry" />
        </mxCell>
        <mxCell id="n1Ga5cI-aDsPV8AeEbfY-125" value="медиаконвертер" style="text;html=1;align=center;verticalAlign=middle;resizable=0;points=[];autosize=1;strokeColor=none;fillColor=none;fontFamily=Architects Daughter;fontSource=https%3A%2F%2Ffonts.googleapis.com%2Fcss%3Ffamily%3DArchitects%2BDaughter;" vertex="1" parent="1">
          <mxGeometry x="1890" y="-240" width="110" height="30" as="geometry" />
        </mxCell>
        <mxCell id="n1Ga5cI-aDsPV8AeEbfY-127" value="медиаконвертер" style="text;html=1;align=center;verticalAlign=middle;resizable=0;points=[];autosize=1;strokeColor=none;fillColor=none;fontFamily=Architects Daughter;fontSource=https%3A%2F%2Ffonts.googleapis.com%2Fcss%3Ffamily%3DArchitects%2BDaughter;" vertex="1" parent="1">
          <mxGeometry x="1435" y="295" width="110" height="30" as="geometry" />
        </mxCell>
        <mxCell id="n1Ga5cI-aDsPV8AeEbfY-128" value="медиаконвертер" style="text;html=1;align=center;verticalAlign=middle;resizable=0;points=[];autosize=1;strokeColor=none;fillColor=none;fontFamily=Architects Daughter;fontSource=https%3A%2F%2Ffonts.googleapis.com%2Fcss%3Ffamily%3DArchitects%2BDaughter;" vertex="1" parent="1">
          <mxGeometry x="1445" y="595" width="110" height="30" as="geometry" />
        </mxCell>
        <mxCell id="n1Ga5cI-aDsPV8AeEbfY-151" style="edgeStyle=orthogonalEdgeStyle;rounded=0;sketch=1;hachureGap=4;jiggle=2;curveFitting=1;orthogonalLoop=1;jettySize=auto;html=1;fontFamily=Architects Daughter;fontSource=https%3A%2F%2Ffonts.googleapis.com%2Fcss%3Ffamily%3DArchitects%2BDaughter;entryX=0.1;entryY=1;entryDx=0;entryDy=0;entryPerimeter=0;" edge="1" parent="1" source="n1Ga5cI-aDsPV8AeEbfY-152" target="n1Ga5cI-aDsPV8AeEbfY-182">
          <mxGeometry relative="1" as="geometry">
            <mxPoint x="1620" y="-813" as="targetPoint" />
          </mxGeometry>
        </mxCell>
        <mxCell id="n1Ga5cI-aDsPV8AeEbfY-152" value="" style="ellipse;whiteSpace=wrap;html=1;aspect=fixed;sketch=1;hachureGap=4;jiggle=2;curveFitting=1;fontFamily=Architects Daughter;fontSource=https%3A%2F%2Ffonts.googleapis.com%2Fcss%3Ffamily%3DArchitects%2BDaughter;" vertex="1" parent="1">
          <mxGeometry x="1465" y="-853" width="80" height="80" as="geometry" />
        </mxCell>
        <mxCell id="n1Ga5cI-aDsPV8AeEbfY-153" style="edgeStyle=orthogonalEdgeStyle;rounded=0;sketch=1;hachureGap=4;jiggle=2;curveFitting=1;orthogonalLoop=1;jettySize=auto;html=1;fontFamily=Architects Daughter;fontSource=https%3A%2F%2Ffonts.googleapis.com%2Fcss%3Ffamily%3DArchitects%2BDaughter;" edge="1" parent="1" source="n1Ga5cI-aDsPV8AeEbfY-154" target="n1Ga5cI-aDsPV8AeEbfY-182">
          <mxGeometry relative="1" as="geometry">
            <mxPoint x="1720" y="-813" as="targetPoint" />
            <Array as="points">
              <mxPoint x="1690" y="-813" />
            </Array>
          </mxGeometry>
        </mxCell>
        <mxCell id="n1Ga5cI-aDsPV8AeEbfY-154" value="" style="ellipse;whiteSpace=wrap;html=1;aspect=fixed;sketch=1;hachureGap=4;jiggle=2;curveFitting=1;fontFamily=Architects Daughter;fontSource=https%3A%2F%2Ffonts.googleapis.com%2Fcss%3Ffamily%3DArchitects%2BDaughter;" vertex="1" parent="1">
          <mxGeometry x="1815" y="-853" width="80" height="80" as="geometry" />
        </mxCell>
        <mxCell id="n1Ga5cI-aDsPV8AeEbfY-155" style="edgeStyle=orthogonalEdgeStyle;rounded=0;sketch=1;hachureGap=4;jiggle=2;curveFitting=1;orthogonalLoop=1;jettySize=auto;html=1;fontFamily=Architects Daughter;fontSource=https%3A%2F%2Ffonts.googleapis.com%2Fcss%3Ffamily%3DArchitects%2BDaughter;" edge="1" parent="1" source="n1Ga5cI-aDsPV8AeEbfY-156" target="n1Ga5cI-aDsPV8AeEbfY-182">
          <mxGeometry relative="1" as="geometry">
            <Array as="points">
              <mxPoint x="1670" y="-668" />
            </Array>
            <mxPoint x="1705" y="-798" as="targetPoint" />
          </mxGeometry>
        </mxCell>
        <mxCell id="n1Ga5cI-aDsPV8AeEbfY-156" value="" style="whiteSpace=wrap;html=1;aspect=fixed;sketch=1;hachureGap=4;jiggle=2;curveFitting=1;fontFamily=Architects Daughter;fontSource=https%3A%2F%2Ffonts.googleapis.com%2Fcss%3Ffamily%3DArchitects%2BDaughter;" vertex="1" parent="1">
          <mxGeometry x="1815" y="-708" width="80" height="80" as="geometry" />
        </mxCell>
        <mxCell id="n1Ga5cI-aDsPV8AeEbfY-157" value="" style="whiteSpace=wrap;html=1;aspect=fixed;sketch=1;hachureGap=4;jiggle=2;curveFitting=1;fontFamily=Architects Daughter;fontSource=https%3A%2F%2Ffonts.googleapis.com%2Fcss%3Ffamily%3DArchitects%2BDaughter;" vertex="1" parent="1">
          <mxGeometry x="1465" y="-708" width="80" height="80" as="geometry" />
        </mxCell>
        <mxCell id="n1Ga5cI-aDsPV8AeEbfY-158" style="edgeStyle=orthogonalEdgeStyle;rounded=0;sketch=1;hachureGap=4;jiggle=2;curveFitting=1;orthogonalLoop=1;jettySize=auto;html=1;fontFamily=Architects Daughter;fontSource=https%3A%2F%2Ffonts.googleapis.com%2Fcss%3Ffamily%3DArchitects%2BDaughter;" edge="1" parent="1" source="n1Ga5cI-aDsPV8AeEbfY-159" target="n1Ga5cI-aDsPV8AeEbfY-182">
          <mxGeometry relative="1" as="geometry">
            <mxPoint x="1638" y="-798" as="targetPoint" />
            <Array as="points">
              <mxPoint x="1639" y="-533" />
            </Array>
          </mxGeometry>
        </mxCell>
        <mxCell id="n1Ga5cI-aDsPV8AeEbfY-159" value="" style="ellipse;whiteSpace=wrap;html=1;aspect=fixed;sketch=1;hachureGap=4;jiggle=2;curveFitting=1;fontFamily=Architects Daughter;fontSource=https%3A%2F%2Ffonts.googleapis.com%2Fcss%3Ffamily%3DArchitects%2BDaughter;" vertex="1" parent="1">
          <mxGeometry x="1465" y="-573" width="80" height="80" as="geometry" />
        </mxCell>
        <mxCell id="n1Ga5cI-aDsPV8AeEbfY-160" value="" style="ellipse;whiteSpace=wrap;html=1;aspect=fixed;sketch=1;hachureGap=4;jiggle=2;curveFitting=1;fontFamily=Architects Daughter;fontSource=https%3A%2F%2Ffonts.googleapis.com%2Fcss%3Ffamily%3DArchitects%2BDaughter;" vertex="1" parent="1">
          <mxGeometry x="1815" y="-573" width="80" height="80" as="geometry" />
        </mxCell>
        <mxCell id="n1Ga5cI-aDsPV8AeEbfY-161" style="edgeStyle=orthogonalEdgeStyle;rounded=0;sketch=1;hachureGap=4;jiggle=2;curveFitting=1;orthogonalLoop=1;jettySize=auto;html=1;fontFamily=Architects Daughter;fontSource=https%3A%2F%2Ffonts.googleapis.com%2Fcss%3Ffamily%3DArchitects%2BDaughter;" edge="1" parent="1" source="n1Ga5cI-aDsPV8AeEbfY-157" target="n1Ga5cI-aDsPV8AeEbfY-182">
          <mxGeometry relative="1" as="geometry">
            <Array as="points">
              <mxPoint x="1630" y="-678" />
            </Array>
            <mxPoint x="1625" y="-798" as="targetPoint" />
          </mxGeometry>
        </mxCell>
        <mxCell id="n1Ga5cI-aDsPV8AeEbfY-162" style="edgeStyle=orthogonalEdgeStyle;rounded=0;sketch=1;hachureGap=4;jiggle=2;curveFitting=1;orthogonalLoop=1;jettySize=auto;html=1;fontFamily=Architects Daughter;fontSource=https%3A%2F%2Ffonts.googleapis.com%2Fcss%3Ffamily%3DArchitects%2BDaughter;" edge="1" parent="1" source="n1Ga5cI-aDsPV8AeEbfY-160" target="n1Ga5cI-aDsPV8AeEbfY-182">
          <mxGeometry relative="1" as="geometry">
            <mxPoint x="1685" y="-798" as="targetPoint" />
            <Array as="points">
              <mxPoint x="1650" y="-533" />
            </Array>
          </mxGeometry>
        </mxCell>
        <mxCell id="n1Ga5cI-aDsPV8AeEbfY-163" value="RFID кольцо" style="text;html=1;align=center;verticalAlign=middle;resizable=0;points=[];autosize=1;strokeColor=none;fillColor=none;fontFamily=Architects Daughter;fontSource=https%3A%2F%2Ffonts.googleapis.com%2Fcss%3Ffamily%3DArchitects%2BDaughter;" vertex="1" parent="1">
          <mxGeometry x="1455" y="-890" width="90" height="30" as="geometry" />
        </mxCell>
        <mxCell id="n1Ga5cI-aDsPV8AeEbfY-164" value="DIN контроллер" style="text;html=1;align=center;verticalAlign=middle;resizable=0;points=[];autosize=1;strokeColor=none;fillColor=none;fontFamily=Architects Daughter;fontSource=https%3A%2F%2Ffonts.googleapis.com%2Fcss%3Ffamily%3DArchitects%2BDaughter;" vertex="1" parent="1">
          <mxGeometry x="1455" y="-738" width="100" height="30" as="geometry" />
        </mxCell>
        <mxCell id="n1Ga5cI-aDsPV8AeEbfY-165" value="RFID кольцо" style="text;html=1;align=center;verticalAlign=middle;resizable=0;points=[];autosize=1;strokeColor=none;fillColor=none;fontFamily=Architects Daughter;fontSource=https%3A%2F%2Ffonts.googleapis.com%2Fcss%3Ffamily%3DArchitects%2BDaughter;" vertex="1" parent="1">
          <mxGeometry x="1815" y="-883" width="90" height="30" as="geometry" />
        </mxCell>
        <mxCell id="n1Ga5cI-aDsPV8AeEbfY-166" value="RFID кольцо" style="text;html=1;align=center;verticalAlign=middle;resizable=0;points=[];autosize=1;strokeColor=none;fillColor=none;fontFamily=Architects Daughter;fontSource=https%3A%2F%2Ffonts.googleapis.com%2Fcss%3Ffamily%3DArchitects%2BDaughter;" vertex="1" parent="1">
          <mxGeometry x="1810" y="-606.5" width="90" height="30" as="geometry" />
        </mxCell>
        <mxCell id="n1Ga5cI-aDsPV8AeEbfY-167" value="RFID кольцо" style="text;html=1;align=center;verticalAlign=middle;resizable=0;points=[];autosize=1;strokeColor=none;fillColor=none;fontFamily=Architects Daughter;fontSource=https%3A%2F%2Ffonts.googleapis.com%2Fcss%3Ffamily%3DArchitects%2BDaughter;" vertex="1" parent="1">
          <mxGeometry x="1460" y="-603" width="90" height="30" as="geometry" />
        </mxCell>
        <mxCell id="n1Ga5cI-aDsPV8AeEbfY-168" value="DIN контроллер" style="text;html=1;align=center;verticalAlign=middle;resizable=0;points=[];autosize=1;strokeColor=none;fillColor=none;fontFamily=Architects Daughter;fontSource=https%3A%2F%2Ffonts.googleapis.com%2Fcss%3Ffamily%3DArchitects%2BDaughter;" vertex="1" parent="1">
          <mxGeometry x="1810" y="-741.5" width="100" height="30" as="geometry" />
        </mxCell>
        <mxCell id="n1Ga5cI-aDsPV8AeEbfY-175" style="edgeStyle=orthogonalEdgeStyle;rounded=0;sketch=1;hachureGap=4;jiggle=2;curveFitting=1;orthogonalLoop=1;jettySize=auto;html=1;fontFamily=Architects Daughter;fontSource=https%3A%2F%2Ffonts.googleapis.com%2Fcss%3Ffamily%3DArchitects%2BDaughter;" edge="1" parent="1" source="n1Ga5cI-aDsPV8AeEbfY-169" target="n1Ga5cI-aDsPV8AeEbfY-170">
          <mxGeometry relative="1" as="geometry" />
        </mxCell>
        <mxCell id="n1Ga5cI-aDsPV8AeEbfY-216" style="edgeStyle=orthogonalEdgeStyle;rounded=0;sketch=1;hachureGap=4;jiggle=2;curveFitting=1;orthogonalLoop=1;jettySize=auto;html=1;fontFamily=Architects Daughter;fontSource=https%3A%2F%2Ffonts.googleapis.com%2Fcss%3Ffamily%3DArchitects%2BDaughter;" edge="1" parent="1" source="n1Ga5cI-aDsPV8AeEbfY-169" target="n1Ga5cI-aDsPV8AeEbfY-2">
          <mxGeometry relative="1" as="geometry" />
        </mxCell>
        <mxCell id="n1Ga5cI-aDsPV8AeEbfY-169" value="" style="html=1;outlineConnect=0;fillColor=#CCCCCC;strokeColor=#6881B3;gradientColor=none;gradientDirection=north;strokeWidth=2;shape=mxgraph.networks.bus;gradientColor=none;gradientDirection=north;fontColor=#ffffff;perimeter=backbonePerimeter;backboneSize=20;sketch=1;hachureGap=4;jiggle=2;curveFitting=1;fontFamily=Architects Daughter;fontSource=https%3A%2F%2Ffonts.googleapis.com%2Fcss%3Ffamily%3DArchitects%2BDaughter;rotation=-90;" vertex="1" parent="1">
          <mxGeometry x="363.13" y="-154.37" width="298.75" height="20" as="geometry" />
        </mxCell>
        <mxCell id="n1Ga5cI-aDsPV8AeEbfY-176" style="edgeStyle=orthogonalEdgeStyle;rounded=0;sketch=1;hachureGap=4;jiggle=2;curveFitting=1;orthogonalLoop=1;jettySize=auto;html=1;fontFamily=Architects Daughter;fontSource=https%3A%2F%2Ffonts.googleapis.com%2Fcss%3Ffamily%3DArchitects%2BDaughter;" edge="1" parent="1" source="n1Ga5cI-aDsPV8AeEbfY-170" target="n1Ga5cI-aDsPV8AeEbfY-171">
          <mxGeometry relative="1" as="geometry" />
        </mxCell>
        <mxCell id="n1Ga5cI-aDsPV8AeEbfY-170" value="&lt;font style=&quot;font-size: 20px;&quot;&gt;АБК&lt;/font&gt;" style="whiteSpace=wrap;html=1;aspect=fixed;sketch=1;hachureGap=4;jiggle=2;curveFitting=1;fontFamily=Architects Daughter;fontSource=https%3A%2F%2Ffonts.googleapis.com%2Fcss%3Ffamily%3DArchitects%2BDaughter;" vertex="1" parent="1">
          <mxGeometry x="472.5" y="-460" width="80" height="80" as="geometry" />
        </mxCell>
        <mxCell id="n1Ga5cI-aDsPV8AeEbfY-177" style="edgeStyle=orthogonalEdgeStyle;rounded=0;sketch=1;hachureGap=4;jiggle=2;curveFitting=1;orthogonalLoop=1;jettySize=auto;html=1;fontFamily=Architects Daughter;fontSource=https%3A%2F%2Ffonts.googleapis.com%2Fcss%3Ffamily%3DArchitects%2BDaughter;" edge="1" parent="1" source="n1Ga5cI-aDsPV8AeEbfY-171" target="n1Ga5cI-aDsPV8AeEbfY-172">
          <mxGeometry relative="1" as="geometry" />
        </mxCell>
        <mxCell id="n1Ga5cI-aDsPV8AeEbfY-171" value="" style="html=1;outlineConnect=0;fillColor=#f8cecc;strokeColor=#b85450;gradientDirection=north;strokeWidth=2;shape=mxgraph.networks.bus;gradientColor=none;gradientDirection=north;perimeter=backbonePerimeter;backboneSize=20;sketch=1;hachureGap=4;jiggle=2;curveFitting=1;fontFamily=Architects Daughter;fontSource=https%3A%2F%2Ffonts.googleapis.com%2Fcss%3Ffamily%3DArchitects%2BDaughter;rotation=-90;" vertex="1" parent="1">
          <mxGeometry x="370.32" y="-679.68" width="284.37" height="20" as="geometry" />
        </mxCell>
        <mxCell id="n1Ga5cI-aDsPV8AeEbfY-178" style="edgeStyle=orthogonalEdgeStyle;rounded=0;sketch=1;hachureGap=4;jiggle=2;curveFitting=1;orthogonalLoop=1;jettySize=auto;html=1;fontFamily=Architects Daughter;fontSource=https%3A%2F%2Ffonts.googleapis.com%2Fcss%3Ffamily%3DArchitects%2BDaughter;" edge="1" parent="1" source="n1Ga5cI-aDsPV8AeEbfY-172" target="n1Ga5cI-aDsPV8AeEbfY-174">
          <mxGeometry relative="1" as="geometry" />
        </mxCell>
        <mxCell id="n1Ga5cI-aDsPV8AeEbfY-172" value="РОСТЕЛЕКОМ" style="whiteSpace=wrap;html=1;aspect=fixed;sketch=1;hachureGap=4;jiggle=2;curveFitting=1;fontFamily=Architects Daughter;fontSource=https%3A%2F%2Ffonts.googleapis.com%2Fcss%3Ffamily%3DArchitects%2BDaughter;fillColor=#f8cecc;strokeColor=#b85450;" vertex="1" parent="1">
          <mxGeometry x="462.5" y="-983" width="100" height="100" as="geometry" />
        </mxCell>
        <mxCell id="n1Ga5cI-aDsPV8AeEbfY-179" style="edgeStyle=orthogonalEdgeStyle;rounded=0;sketch=1;hachureGap=4;jiggle=2;curveFitting=1;orthogonalLoop=1;jettySize=auto;html=1;fontFamily=Architects Daughter;fontSource=https%3A%2F%2Ffonts.googleapis.com%2Fcss%3Ffamily%3DArchitects%2BDaughter;entryX=0;entryY=0.5;entryDx=0;entryDy=0;entryPerimeter=0;" edge="1" parent="1" source="n1Ga5cI-aDsPV8AeEbfY-174" target="n1Ga5cI-aDsPV8AeEbfY-181">
          <mxGeometry relative="1" as="geometry">
            <mxPoint x="820" y="-850" as="targetPoint" />
            <Array as="points">
              <mxPoint x="1030" y="-940" />
              <mxPoint x="1030" y="-933" />
            </Array>
          </mxGeometry>
        </mxCell>
        <mxCell id="n1Ga5cI-aDsPV8AeEbfY-174" value="" style="html=1;outlineConnect=0;fillColor=#f8cecc;strokeColor=#b85450;gradientDirection=north;strokeWidth=2;shape=mxgraph.networks.bus;gradientColor=none;gradientDirection=north;perimeter=backbonePerimeter;backboneSize=20;sketch=1;hachureGap=4;jiggle=2;curveFitting=1;fontFamily=Architects Daughter;fontSource=https%3A%2F%2Ffonts.googleapis.com%2Fcss%3Ffamily%3DArchitects%2BDaughter;" vertex="1" parent="1">
          <mxGeometry x="605" y="-950" width="395" height="20" as="geometry" />
        </mxCell>
        <mxCell id="n1Ga5cI-aDsPV8AeEbfY-183" style="edgeStyle=orthogonalEdgeStyle;rounded=0;sketch=1;hachureGap=4;jiggle=2;curveFitting=1;orthogonalLoop=1;jettySize=auto;html=1;fontFamily=Architects Daughter;fontSource=https%3A%2F%2Ffonts.googleapis.com%2Fcss%3Ffamily%3DArchitects%2BDaughter;" edge="1" parent="1" source="n1Ga5cI-aDsPV8AeEbfY-181" target="n1Ga5cI-aDsPV8AeEbfY-182">
          <mxGeometry relative="1" as="geometry" />
        </mxCell>
        <mxCell id="n1Ga5cI-aDsPV8AeEbfY-181" value="СВИЧ РОСТЕЛЕКОМА" style="fontColor=#0066CC;verticalAlign=top;verticalLabelPosition=bottom;labelPosition=center;align=center;html=1;outlineConnect=0;fillColor=#CCCCCC;strokeColor=#6881B3;gradientColor=none;gradientDirection=north;strokeWidth=2;shape=mxgraph.networks.hub;sketch=1;hachureGap=4;jiggle=2;curveFitting=1;fontFamily=Architects Daughter;fontSource=https%3A%2F%2Ffonts.googleapis.com%2Fcss%3Ffamily%3DArchitects%2BDaughter;" vertex="1" parent="1">
          <mxGeometry x="1465" y="-948" width="100" height="30" as="geometry" />
        </mxCell>
        <mxCell id="n1Ga5cI-aDsPV8AeEbfY-186" style="edgeStyle=orthogonalEdgeStyle;rounded=0;sketch=1;hachureGap=4;jiggle=2;curveFitting=1;orthogonalLoop=1;jettySize=auto;html=1;fontFamily=Architects Daughter;fontSource=https%3A%2F%2Ffonts.googleapis.com%2Fcss%3Ffamily%3DArchitects%2BDaughter;" edge="1" parent="1" source="n1Ga5cI-aDsPV8AeEbfY-182" target="n1Ga5cI-aDsPV8AeEbfY-185">
          <mxGeometry relative="1" as="geometry">
            <Array as="points">
              <mxPoint x="1660" y="-1087" />
            </Array>
          </mxGeometry>
        </mxCell>
        <mxCell id="n1Ga5cI-aDsPV8AeEbfY-206" style="edgeStyle=orthogonalEdgeStyle;rounded=0;sketch=1;hachureGap=4;jiggle=2;curveFitting=1;orthogonalLoop=1;jettySize=auto;html=1;fontFamily=Architects Daughter;fontSource=https%3A%2F%2Ffonts.googleapis.com%2Fcss%3Ffamily%3DArchitects%2BDaughter;" edge="1" parent="1" source="n1Ga5cI-aDsPV8AeEbfY-182" target="n1Ga5cI-aDsPV8AeEbfY-191">
          <mxGeometry relative="1" as="geometry" />
        </mxCell>
        <mxCell id="n1Ga5cI-aDsPV8AeEbfY-213" style="edgeStyle=orthogonalEdgeStyle;rounded=0;sketch=1;hachureGap=4;jiggle=2;curveFitting=1;orthogonalLoop=1;jettySize=auto;html=1;fontFamily=Architects Daughter;fontSource=https%3A%2F%2Ffonts.googleapis.com%2Fcss%3Ffamily%3DArchitects%2BDaughter;" edge="1" parent="1" source="n1Ga5cI-aDsPV8AeEbfY-182" target="n1Ga5cI-aDsPV8AeEbfY-212">
          <mxGeometry relative="1" as="geometry">
            <Array as="points">
              <mxPoint x="1700" y="-970" />
              <mxPoint x="1760" y="-970" />
            </Array>
          </mxGeometry>
        </mxCell>
        <mxCell id="n1Ga5cI-aDsPV8AeEbfY-182" value="&lt;font style=&quot;font-size: 20px;&quot;&gt;UNIFI&lt;/font&gt;" style="fontColor=#0066CC;verticalAlign=top;verticalLabelPosition=bottom;labelPosition=center;align=center;html=1;outlineConnect=0;fillColor=#CCCCCC;strokeColor=#6881B3;gradientColor=none;gradientDirection=north;strokeWidth=2;shape=mxgraph.networks.hub;sketch=1;hachureGap=4;jiggle=2;curveFitting=1;fontFamily=Architects Daughter;fontSource=https%3A%2F%2Ffonts.googleapis.com%2Fcss%3Ffamily%3DArchitects%2BDaughter;" vertex="1" parent="1">
          <mxGeometry x="1610" y="-948" width="100" height="30" as="geometry" />
        </mxCell>
        <mxCell id="n1Ga5cI-aDsPV8AeEbfY-189" style="edgeStyle=orthogonalEdgeStyle;rounded=0;sketch=1;hachureGap=4;jiggle=2;curveFitting=1;orthogonalLoop=1;jettySize=auto;html=1;fontFamily=Architects Daughter;fontSource=https%3A%2F%2Ffonts.googleapis.com%2Fcss%3Ffamily%3DArchitects%2BDaughter;" edge="1" parent="1" source="n1Ga5cI-aDsPV8AeEbfY-184" target="n1Ga5cI-aDsPV8AeEbfY-182">
          <mxGeometry relative="1" as="geometry">
            <mxPoint x="1690" y="-910" as="targetPoint" />
            <Array as="points">
              <mxPoint x="1680" y="-743" />
            </Array>
          </mxGeometry>
        </mxCell>
        <mxCell id="n1Ga5cI-aDsPV8AeEbfY-184" value="" style="fontColor=#0066CC;verticalAlign=top;verticalLabelPosition=bottom;labelPosition=center;align=center;html=1;outlineConnect=0;fillColor=#CCCCCC;strokeColor=#6881B3;gradientColor=none;gradientDirection=north;strokeWidth=2;shape=mxgraph.networks.pc;sketch=1;hachureGap=4;jiggle=2;curveFitting=1;fontFamily=Architects Daughter;fontSource=https%3A%2F%2Ffonts.googleapis.com%2Fcss%3Ffamily%3DArchitects%2BDaughter;" vertex="1" parent="1">
          <mxGeometry x="1695" y="-773" width="100" height="70" as="geometry" />
        </mxCell>
        <mxCell id="n1Ga5cI-aDsPV8AeEbfY-185" value="ТЕЛЕМЕТРИЯ" style="fontColor=#0066CC;verticalAlign=top;verticalLabelPosition=bottom;labelPosition=center;align=center;html=1;outlineConnect=0;fillColor=#CCCCCC;strokeColor=#6881B3;gradientColor=none;gradientDirection=north;strokeWidth=2;shape=mxgraph.networks.mail_server;sketch=1;hachureGap=4;jiggle=2;curveFitting=1;fontFamily=Architects Daughter;fontSource=https%3A%2F%2Ffonts.googleapis.com%2Fcss%3Ffamily%3DArchitects%2BDaughter;" vertex="1" parent="1">
          <mxGeometry x="1610" y="-1122" width="105" height="105" as="geometry" />
        </mxCell>
        <mxCell id="n1Ga5cI-aDsPV8AeEbfY-187" value="MIKROTIK" style="fontColor=#0066CC;verticalAlign=top;verticalLabelPosition=bottom;labelPosition=center;align=center;html=1;outlineConnect=0;fillColor=#CCCCCC;strokeColor=#6881B3;gradientColor=none;gradientDirection=north;strokeWidth=2;shape=mxgraph.networks.wireless_hub;sketch=1;hachureGap=4;jiggle=2;curveFitting=1;fontFamily=Architects Daughter;fontSource=https%3A%2F%2Ffonts.googleapis.com%2Fcss%3Ffamily%3DArchitects%2BDaughter;" vertex="1" parent="1">
          <mxGeometry x="1490" y="-1250" width="100" height="85" as="geometry" />
        </mxCell>
        <mxCell id="n1Ga5cI-aDsPV8AeEbfY-190" style="edgeStyle=orthogonalEdgeStyle;rounded=0;sketch=1;hachureGap=4;jiggle=2;curveFitting=1;orthogonalLoop=1;jettySize=auto;html=1;fontFamily=Architects Daughter;fontSource=https%3A%2F%2Ffonts.googleapis.com%2Fcss%3Ffamily%3DArchitects%2BDaughter;" edge="1" parent="1" source="n1Ga5cI-aDsPV8AeEbfY-185" target="n1Ga5cI-aDsPV8AeEbfY-187">
          <mxGeometry relative="1" as="geometry">
            <Array as="points">
              <mxPoint x="1500" y="-1069" />
            </Array>
          </mxGeometry>
        </mxCell>
        <mxCell id="n1Ga5cI-aDsPV8AeEbfY-191" value="" style="fontColor=#0066CC;verticalAlign=top;verticalLabelPosition=bottom;labelPosition=center;align=center;html=1;outlineConnect=0;fillColor=#CCCCCC;strokeColor=#6881B3;gradientColor=none;gradientDirection=north;strokeWidth=2;shape=mxgraph.networks.hub;sketch=1;hachureGap=4;jiggle=2;curveFitting=1;fontFamily=Architects Daughter;fontSource=https%3A%2F%2Ffonts.googleapis.com%2Fcss%3Ffamily%3DArchitects%2BDaughter;" vertex="1" parent="1">
          <mxGeometry x="2170" y="-948" width="100" height="30" as="geometry" />
        </mxCell>
        <mxCell id="n1Ga5cI-aDsPV8AeEbfY-192" value="" style="fontColor=#0066CC;verticalAlign=top;verticalLabelPosition=bottom;labelPosition=center;align=center;html=1;outlineConnect=0;fillColor=#CCCCCC;strokeColor=#6881B3;gradientColor=none;gradientDirection=north;strokeWidth=2;shape=mxgraph.networks.pc;sketch=1;hachureGap=4;jiggle=2;curveFitting=1;fontFamily=Architects Daughter;fontSource=https%3A%2F%2Ffonts.googleapis.com%2Fcss%3Ffamily%3DArchitects%2BDaughter;" vertex="1" parent="1">
          <mxGeometry x="2060" y="-848" width="100" height="70" as="geometry" />
        </mxCell>
        <mxCell id="n1Ga5cI-aDsPV8AeEbfY-201" style="edgeStyle=orthogonalEdgeStyle;rounded=0;sketch=1;hachureGap=4;jiggle=2;curveFitting=1;orthogonalLoop=1;jettySize=auto;html=1;fontFamily=Architects Daughter;fontSource=https%3A%2F%2Ffonts.googleapis.com%2Fcss%3Ffamily%3DArchitects%2BDaughter;" edge="1" parent="1" source="n1Ga5cI-aDsPV8AeEbfY-193" target="n1Ga5cI-aDsPV8AeEbfY-191">
          <mxGeometry relative="1" as="geometry">
            <Array as="points">
              <mxPoint x="2220" y="-813" />
            </Array>
          </mxGeometry>
        </mxCell>
        <mxCell id="n1Ga5cI-aDsPV8AeEbfY-193" value="" style="fontColor=#0066CC;verticalAlign=top;verticalLabelPosition=bottom;labelPosition=center;align=center;html=1;outlineConnect=0;fillColor=#CCCCCC;strokeColor=#6881B3;gradientColor=none;gradientDirection=north;strokeWidth=2;shape=mxgraph.networks.pc;sketch=1;hachureGap=4;jiggle=2;curveFitting=1;fontFamily=Architects Daughter;fontSource=https%3A%2F%2Ffonts.googleapis.com%2Fcss%3Ffamily%3DArchitects%2BDaughter;" vertex="1" parent="1">
          <mxGeometry x="2260" y="-848" width="100" height="70" as="geometry" />
        </mxCell>
        <mxCell id="n1Ga5cI-aDsPV8AeEbfY-203" style="edgeStyle=orthogonalEdgeStyle;rounded=0;sketch=1;hachureGap=4;jiggle=2;curveFitting=1;orthogonalLoop=1;jettySize=auto;html=1;fontFamily=Architects Daughter;fontSource=https%3A%2F%2Ffonts.googleapis.com%2Fcss%3Ffamily%3DArchitects%2BDaughter;" edge="1" parent="1" source="n1Ga5cI-aDsPV8AeEbfY-194" target="n1Ga5cI-aDsPV8AeEbfY-191">
          <mxGeometry relative="1" as="geometry">
            <Array as="points">
              <mxPoint x="2200" y="-578" />
            </Array>
          </mxGeometry>
        </mxCell>
        <mxCell id="n1Ga5cI-aDsPV8AeEbfY-194" value="" style="fontColor=#0066CC;verticalAlign=top;verticalLabelPosition=bottom;labelPosition=center;align=center;html=1;outlineConnect=0;fillColor=#CCCCCC;strokeColor=#6881B3;gradientColor=none;gradientDirection=north;strokeWidth=2;shape=mxgraph.networks.printer;sketch=1;hachureGap=4;jiggle=2;curveFitting=1;fontFamily=Architects Daughter;fontSource=https%3A%2F%2Ffonts.googleapis.com%2Fcss%3Ffamily%3DArchitects%2BDaughter;" vertex="1" parent="1">
          <mxGeometry x="2260" y="-628" width="100" height="100" as="geometry" />
        </mxCell>
        <mxCell id="n1Ga5cI-aDsPV8AeEbfY-200" style="edgeStyle=orthogonalEdgeStyle;rounded=0;sketch=1;hachureGap=4;jiggle=2;curveFitting=1;orthogonalLoop=1;jettySize=auto;html=1;fontFamily=Architects Daughter;fontSource=https%3A%2F%2Ffonts.googleapis.com%2Fcss%3Ffamily%3DArchitects%2BDaughter;" edge="1" parent="1" source="n1Ga5cI-aDsPV8AeEbfY-195" target="n1Ga5cI-aDsPV8AeEbfY-191">
          <mxGeometry relative="1" as="geometry">
            <Array as="points">
              <mxPoint x="2190" y="-711" />
            </Array>
          </mxGeometry>
        </mxCell>
        <mxCell id="n1Ga5cI-aDsPV8AeEbfY-195" value="" style="rounded=1;whiteSpace=wrap;html=1;sketch=1;hachureGap=4;jiggle=2;curveFitting=1;fontFamily=Architects Daughter;fontSource=https%3A%2F%2Ffonts.googleapis.com%2Fcss%3Ffamily%3DArchitects%2BDaughter;" vertex="1" parent="1">
          <mxGeometry x="2080" y="-730" width="70" height="37" as="geometry" />
        </mxCell>
        <mxCell id="n1Ga5cI-aDsPV8AeEbfY-202" style="edgeStyle=orthogonalEdgeStyle;rounded=0;sketch=1;hachureGap=4;jiggle=2;curveFitting=1;orthogonalLoop=1;jettySize=auto;html=1;fontFamily=Architects Daughter;fontSource=https%3A%2F%2Ffonts.googleapis.com%2Fcss%3Ffamily%3DArchitects%2BDaughter;" edge="1" parent="1" source="n1Ga5cI-aDsPV8AeEbfY-196" target="n1Ga5cI-aDsPV8AeEbfY-191">
          <mxGeometry relative="1" as="geometry">
            <Array as="points">
              <mxPoint x="2210" y="-711" />
            </Array>
          </mxGeometry>
        </mxCell>
        <mxCell id="n1Ga5cI-aDsPV8AeEbfY-196" value="" style="rounded=1;whiteSpace=wrap;html=1;sketch=1;hachureGap=4;jiggle=2;curveFitting=1;fontFamily=Architects Daughter;fontSource=https%3A%2F%2Ffonts.googleapis.com%2Fcss%3Ffamily%3DArchitects%2BDaughter;" vertex="1" parent="1">
          <mxGeometry x="2275" y="-730" width="70" height="37" as="geometry" />
        </mxCell>
        <mxCell id="n1Ga5cI-aDsPV8AeEbfY-204" style="edgeStyle=orthogonalEdgeStyle;rounded=0;sketch=1;hachureGap=4;jiggle=2;curveFitting=1;orthogonalLoop=1;jettySize=auto;html=1;fontFamily=Architects Daughter;fontSource=https%3A%2F%2Ffonts.googleapis.com%2Fcss%3Ffamily%3DArchitects%2BDaughter;" edge="1" parent="1" source="n1Ga5cI-aDsPV8AeEbfY-197" target="n1Ga5cI-aDsPV8AeEbfY-191">
          <mxGeometry relative="1" as="geometry">
            <Array as="points">
              <mxPoint x="2490" y="-860" />
              <mxPoint x="2230" y="-860" />
            </Array>
          </mxGeometry>
        </mxCell>
        <mxCell id="n1Ga5cI-aDsPV8AeEbfY-197" value="" style="fontColor=#0066CC;verticalAlign=top;verticalLabelPosition=bottom;labelPosition=center;align=center;html=1;outlineConnect=0;fillColor=#CCCCCC;strokeColor=#6881B3;gradientColor=none;gradientDirection=north;strokeWidth=2;shape=mxgraph.networks.pc;sketch=1;hachureGap=4;jiggle=2;curveFitting=1;fontFamily=Architects Daughter;fontSource=https%3A%2F%2Ffonts.googleapis.com%2Fcss%3Ffamily%3DArchitects%2BDaughter;" vertex="1" parent="1">
          <mxGeometry x="2440" y="-850" width="100" height="70" as="geometry" />
        </mxCell>
        <mxCell id="n1Ga5cI-aDsPV8AeEbfY-205" style="edgeStyle=orthogonalEdgeStyle;rounded=0;sketch=1;hachureGap=4;jiggle=2;curveFitting=1;orthogonalLoop=1;jettySize=auto;html=1;fontFamily=Architects Daughter;fontSource=https%3A%2F%2Ffonts.googleapis.com%2Fcss%3Ffamily%3DArchitects%2BDaughter;" edge="1" parent="1" source="n1Ga5cI-aDsPV8AeEbfY-198" target="n1Ga5cI-aDsPV8AeEbfY-191">
          <mxGeometry relative="1" as="geometry">
            <Array as="points">
              <mxPoint x="2560" y="-713" />
              <mxPoint x="2560" y="-880" />
              <mxPoint x="2250" y="-880" />
            </Array>
          </mxGeometry>
        </mxCell>
        <mxCell id="n1Ga5cI-aDsPV8AeEbfY-198" value="" style="rounded=1;whiteSpace=wrap;html=1;sketch=1;hachureGap=4;jiggle=2;curveFitting=1;fontFamily=Architects Daughter;fontSource=https%3A%2F%2Ffonts.googleapis.com%2Fcss%3Ffamily%3DArchitects%2BDaughter;" vertex="1" parent="1">
          <mxGeometry x="2455" y="-732" width="70" height="37" as="geometry" />
        </mxCell>
        <mxCell id="n1Ga5cI-aDsPV8AeEbfY-199" style="edgeStyle=orthogonalEdgeStyle;rounded=0;sketch=1;hachureGap=4;jiggle=2;curveFitting=1;orthogonalLoop=1;jettySize=auto;html=1;entryX=0.1;entryY=1;entryDx=0;entryDy=0;entryPerimeter=0;fontFamily=Architects Daughter;fontSource=https%3A%2F%2Ffonts.googleapis.com%2Fcss%3Ffamily%3DArchitects%2BDaughter;" edge="1" parent="1" source="n1Ga5cI-aDsPV8AeEbfY-192" target="n1Ga5cI-aDsPV8AeEbfY-191">
          <mxGeometry relative="1" as="geometry" />
        </mxCell>
        <mxCell id="n1Ga5cI-aDsPV8AeEbfY-211" style="edgeStyle=orthogonalEdgeStyle;rounded=0;sketch=1;hachureGap=4;jiggle=2;curveFitting=1;orthogonalLoop=1;jettySize=auto;html=1;fontFamily=Architects Daughter;fontSource=https%3A%2F%2Ffonts.googleapis.com%2Fcss%3Ffamily%3DArchitects%2BDaughter;" edge="1" parent="1" source="n1Ga5cI-aDsPV8AeEbfY-210" target="n1Ga5cI-aDsPV8AeEbfY-182">
          <mxGeometry relative="1" as="geometry">
            <Array as="points">
              <mxPoint x="1660" y="-600" />
            </Array>
          </mxGeometry>
        </mxCell>
        <mxCell id="n1Ga5cI-aDsPV8AeEbfY-210" value="" style="fontColor=#0066CC;verticalAlign=top;verticalLabelPosition=bottom;labelPosition=center;align=center;html=1;outlineConnect=0;fillColor=#CCCCCC;strokeColor=#6881B3;gradientColor=none;gradientDirection=north;strokeWidth=2;shape=mxgraph.networks.printer;sketch=1;hachureGap=4;jiggle=2;curveFitting=1;fontFamily=Architects Daughter;fontSource=https%3A%2F%2Ffonts.googleapis.com%2Fcss%3Ffamily%3DArchitects%2BDaughter;" vertex="1" parent="1">
          <mxGeometry x="1695" y="-650" width="100" height="100" as="geometry" />
        </mxCell>
        <mxCell id="n1Ga5cI-aDsPV8AeEbfY-212" value="&lt;font style=&quot;font-size: 20px;&quot;&gt;тарелка на камеры&lt;/font&gt;" style="fontColor=#0066CC;verticalAlign=top;verticalLabelPosition=bottom;labelPosition=center;align=center;html=1;outlineConnect=0;fillColor=#CCCCCC;strokeColor=#6881B3;gradientColor=none;gradientDirection=north;strokeWidth=2;shape=mxgraph.networks.wireless_hub;sketch=1;hachureGap=4;jiggle=2;curveFitting=1;fontFamily=Architects Daughter;fontSource=https%3A%2F%2Ffonts.googleapis.com%2Fcss%3Ffamily%3DArchitects%2BDaughter;" vertex="1" parent="1">
          <mxGeometry x="1750" y="-1250" width="100" height="85" as="geometry" />
        </mxCell>
        <mxCell id="n1Ga5cI-aDsPV8AeEbfY-214" value="192.168.88.0/24" style="text;html=1;align=center;verticalAlign=middle;resizable=0;points=[];autosize=1;strokeColor=none;fillColor=none;fontFamily=Architects Daughter;fontSource=https%3A%2F%2Ffonts.googleapis.com%2Fcss%3Ffamily%3DArchitects%2BDaughter;" vertex="1" parent="1">
          <mxGeometry x="1500" y="-1060" width="100" height="30" as="geometry" />
        </mxCell>
        <mxCell id="n1Ga5cI-aDsPV8AeEbfY-217" value="&lt;font style=&quot;font-size: 20px;&quot;&gt;10.1.1.0/20&lt;/font&gt;" style="text;html=1;align=center;verticalAlign=middle;resizable=0;points=[];autosize=1;strokeColor=none;fillColor=none;fontFamily=Architects Daughter;fontSource=https%3A%2F%2Ffonts.googleapis.com%2Fcss%3Ffamily%3DArchitects%2BDaughter;rotation=-90;" vertex="1" parent="1">
          <mxGeometry x="430" y="-165" width="100" height="40" as="geometry" />
        </mxCell>
        <mxCell id="n1Ga5cI-aDsPV8AeEbfY-218" value="&lt;font style=&quot;font-size: 20px;&quot;&gt;Выносной&lt;/font&gt;" style="text;html=1;align=center;verticalAlign=middle;resizable=0;points=[];autosize=1;strokeColor=none;fillColor=none;fontFamily=Architects Daughter;fontSource=https%3A%2F%2Ffonts.googleapis.com%2Fcss%3Ffamily%3DArchitects%2BDaughter;" vertex="1" parent="1">
          <mxGeometry x="1610" y="-465" width="110" height="40" as="geometry" />
        </mxCell>
        <mxCell id="n1Ga5cI-aDsPV8AeEbfY-219" value="&lt;font style=&quot;font-size: 20px;&quot;&gt;Выносной тара\брутто&lt;/font&gt;" style="text;html=1;align=center;verticalAlign=middle;resizable=0;points=[];autosize=1;strokeColor=none;fillColor=none;fontFamily=Architects Daughter;fontSource=https%3A%2F%2Ffonts.googleapis.com%2Fcss%3Ffamily%3DArchitects%2BDaughter;" vertex="1" parent="1">
          <mxGeometry x="2210" y="-480" width="220" height="40" as="geometry" />
        </mxCell>
      </root>
    </mxGraphModel>
  </diagram>
</mxfile>
